G04 #@! TF.GenerationSoftware,KiCad,Pcbnew,(5.1.9)-1*
G04 #@! TF.CreationDate,2021-01-10T19:58:29-05:00*
G04 #@! TF.ProjectId,elf_fp,656c665f-6670-42e6-9b69-6361645f7063,rev?*
G04 #@! TF.SameCoordinates,Original*
G04 #@! TF.FileFunction,Soldermask,Bot*
G04 #@! TF.FilePolarity,Negative*
%FSLAX46Y46*%
G04 Gerber Fmt 4.6, Leading zero omitted, Abs format (unit mm)*
G04 Created by KiCad (PCBNEW (5.1.9)-1) date 2021-01-10 19:58:29*
%MOMM*%
%LPD*%
G01*
G04 APERTURE LIST*
%ADD10C,5.200000*%
%ADD11C,2.400000*%
%ADD12R,2.400000X2.400000*%
%ADD13C,1.140000*%
%ADD14R,1.140000X1.140000*%
%ADD15O,1.600000X1.600000*%
%ADD16C,1.600000*%
%ADD17R,1.050000X1.500000*%
%ADD18O,1.050000X1.500000*%
%ADD19R,1.500000X1.050000*%
%ADD20O,1.500000X1.050000*%
%ADD21C,1.275000*%
%ADD22R,1.275000X1.275000*%
%ADD23C,1.800000*%
%ADD24R,1.800000X1.800000*%
%ADD25R,1.600000X1.600000*%
%ADD26C,1.875000*%
%ADD27R,1.875000X1.875000*%
G04 APERTURE END LIST*
D10*
X135300000Y-30400000D03*
X182300000Y-30400000D03*
D11*
X182200000Y-100000000D03*
D12*
X182200000Y-95000000D03*
D13*
X126558000Y-79756000D03*
X126558000Y-82296000D03*
X126558000Y-84836000D03*
X126558000Y-87376000D03*
X126558000Y-89916000D03*
X126558000Y-92456000D03*
X126558000Y-94996000D03*
X118618000Y-94996000D03*
X118618000Y-92456000D03*
X118618000Y-89916000D03*
X118618000Y-87376000D03*
X118618000Y-84836000D03*
X118618000Y-82296000D03*
D14*
X118618000Y-79756000D03*
D13*
X116078000Y-79756000D03*
X116078000Y-82296000D03*
X116078000Y-84836000D03*
X116078000Y-87376000D03*
X116078000Y-89916000D03*
X116078000Y-92456000D03*
X116078000Y-94996000D03*
X108138000Y-94996000D03*
X108138000Y-92456000D03*
X108138000Y-89916000D03*
X108138000Y-87376000D03*
X108138000Y-84836000D03*
X108138000Y-82296000D03*
D14*
X108138000Y-79756000D03*
D15*
X164947600Y-106959400D03*
D16*
X164947600Y-114579400D03*
D15*
X179146200Y-107111800D03*
D16*
X179146200Y-114731800D03*
D15*
X150600000Y-106680000D03*
D16*
X150600000Y-114300000D03*
D15*
X135966200Y-106959400D03*
D16*
X135966200Y-114579400D03*
D15*
X153934000Y-114000000D03*
D16*
X161554000Y-114000000D03*
D15*
X168234000Y-114000000D03*
D16*
X175854000Y-114000000D03*
D15*
X139580000Y-114200000D03*
D16*
X147200000Y-114200000D03*
D15*
X124680000Y-114100000D03*
D16*
X132300000Y-114100000D03*
D15*
X104394000Y-101092000D03*
D16*
X112014000Y-101092000D03*
D15*
X106934000Y-127762000D03*
D16*
X106934000Y-120142000D03*
D15*
X117068600Y-101066600D03*
D16*
X124688600Y-101066600D03*
D15*
X116316000Y-127762000D03*
D16*
X116316000Y-120142000D03*
D17*
X156908000Y-106934000D03*
D18*
X159448000Y-106934000D03*
X158178000Y-106934000D03*
D17*
X171054000Y-107100000D03*
D18*
X173594000Y-107100000D03*
X172324000Y-107100000D03*
D17*
X127500000Y-106900000D03*
D18*
X130040000Y-106900000D03*
X128770000Y-106900000D03*
D19*
X106934000Y-116078000D03*
D20*
X106934000Y-113538000D03*
X106934000Y-114808000D03*
D21*
X177260000Y-121460000D03*
X177260000Y-124000000D03*
X174720000Y-121460000D03*
X174720000Y-124000000D03*
X172180000Y-121460000D03*
X172180000Y-124000000D03*
X169640000Y-121460000D03*
X169640000Y-124000000D03*
X167100000Y-121460000D03*
X167100000Y-124000000D03*
X164560000Y-121460000D03*
X164560000Y-124000000D03*
X162020000Y-121460000D03*
X162020000Y-124000000D03*
X159480000Y-121460000D03*
X159480000Y-124000000D03*
X156940000Y-121460000D03*
X156940000Y-124000000D03*
X154400000Y-121460000D03*
X154400000Y-124000000D03*
X151860000Y-121460000D03*
X151860000Y-124000000D03*
X149320000Y-121460000D03*
X149320000Y-124000000D03*
X146780000Y-121460000D03*
X146780000Y-124000000D03*
X144240000Y-121460000D03*
X144240000Y-124000000D03*
X141700000Y-121460000D03*
X141700000Y-124000000D03*
X139160000Y-121460000D03*
X139160000Y-124000000D03*
X136620000Y-121460000D03*
X136620000Y-124000000D03*
X134080000Y-121460000D03*
X134080000Y-124000000D03*
X131540000Y-121460000D03*
X131540000Y-124000000D03*
X129000000Y-121460000D03*
D22*
X129000000Y-124000000D03*
D23*
X161798000Y-100330000D03*
X161798000Y-97790000D03*
X159258000Y-100330000D03*
X159258000Y-97790000D03*
X156718000Y-100330000D03*
D24*
X156718000Y-97790000D03*
D23*
X106934000Y-105918000D03*
D24*
X106934000Y-108458000D03*
D23*
X116332000Y-105918000D03*
D24*
X116332000Y-108458000D03*
D16*
X133300000Y-88400000D03*
X135800000Y-88400000D03*
X166600000Y-92500000D03*
X164100000Y-92500000D03*
X168656000Y-97700000D03*
D25*
X168656000Y-100200000D03*
D15*
X141200000Y-78994000D03*
X174220000Y-86614000D03*
X143740000Y-78994000D03*
X171680000Y-86614000D03*
X146280000Y-78994000D03*
X169140000Y-86614000D03*
X148820000Y-78994000D03*
X166600000Y-86614000D03*
X151360000Y-78994000D03*
X164060000Y-86614000D03*
X153900000Y-78994000D03*
X161520000Y-86614000D03*
X156440000Y-78994000D03*
X158980000Y-86614000D03*
X158980000Y-78994000D03*
X156440000Y-86614000D03*
X161520000Y-78994000D03*
X153900000Y-86614000D03*
X164060000Y-78994000D03*
X151360000Y-86614000D03*
X166600000Y-78994000D03*
X148820000Y-86614000D03*
X169140000Y-78994000D03*
X146280000Y-86614000D03*
X171680000Y-78994000D03*
X143740000Y-86614000D03*
X174220000Y-78994000D03*
D25*
X141200000Y-86614000D03*
D15*
X135800000Y-92880000D03*
X151040000Y-100500000D03*
X138340000Y-92880000D03*
X148500000Y-100500000D03*
X140880000Y-92880000D03*
X145960000Y-100500000D03*
X143420000Y-92880000D03*
X143420000Y-100500000D03*
X145960000Y-92880000D03*
X140880000Y-100500000D03*
X148500000Y-92880000D03*
X138340000Y-100500000D03*
X151040000Y-92880000D03*
D25*
X135800000Y-100500000D03*
D17*
X142430000Y-106934000D03*
D18*
X144970000Y-106934000D03*
X143700000Y-106934000D03*
D19*
X116316000Y-116078000D03*
D20*
X116316000Y-113538000D03*
X116316000Y-114808000D03*
D26*
X179260000Y-72300000D03*
X176720000Y-72300000D03*
X174180000Y-72300000D03*
X171640000Y-72300000D03*
X169100000Y-72300000D03*
X166560000Y-72300000D03*
X164020000Y-72300000D03*
X161480000Y-72300000D03*
X158940000Y-72300000D03*
X156400000Y-72300000D03*
X153860000Y-72300000D03*
X151320000Y-72300000D03*
X148780000Y-72300000D03*
X146240000Y-72300000D03*
X143700000Y-72300000D03*
X141160000Y-72300000D03*
X138620000Y-72300000D03*
X136080000Y-72300000D03*
X133540000Y-72300000D03*
X131000000Y-72300000D03*
X128460000Y-72300000D03*
X125920000Y-72300000D03*
X123380000Y-72300000D03*
X120840000Y-72300000D03*
X118300000Y-72300000D03*
X115760000Y-72300000D03*
X113220000Y-72300000D03*
X110680000Y-72300000D03*
X108140000Y-72300000D03*
D27*
X105600000Y-72300000D03*
M02*
