G04 #@! TF.GenerationSoftware,KiCad,Pcbnew,(5.1.9)-1*
G04 #@! TF.CreationDate,2021-01-10T19:58:29-05:00*
G04 #@! TF.ProjectId,elf_fp,656c665f-6670-42e6-9b69-6361645f7063,rev?*
G04 #@! TF.SameCoordinates,Original*
G04 #@! TF.FileFunction,Legend,Top*
G04 #@! TF.FilePolarity,Positive*
%FSLAX46Y46*%
G04 Gerber Fmt 4.6, Leading zero omitted, Abs format (unit mm)*
G04 Created by KiCad (PCBNEW (5.1.9)-1) date 2021-01-10 19:58:29*
%MOMM*%
%LPD*%
G01*
G04 APERTURE LIST*
%ADD10C,0.200000*%
%ADD11C,0.010000*%
%ADD12C,0.127000*%
%ADD13C,0.120000*%
%ADD14C,0.150000*%
G04 APERTURE END LIST*
D10*
X142887142Y-56753571D02*
X142887142Y-55253571D01*
X143387142Y-56325000D01*
X143887142Y-55253571D01*
X143887142Y-56753571D01*
X145172857Y-56682142D02*
X145030000Y-56753571D01*
X144744285Y-56753571D01*
X144601428Y-56682142D01*
X144530000Y-56539285D01*
X144530000Y-55967857D01*
X144601428Y-55825000D01*
X144744285Y-55753571D01*
X145030000Y-55753571D01*
X145172857Y-55825000D01*
X145244285Y-55967857D01*
X145244285Y-56110714D01*
X144530000Y-56253571D01*
X145887142Y-56753571D02*
X145887142Y-55753571D01*
X145887142Y-55896428D02*
X145958571Y-55825000D01*
X146101428Y-55753571D01*
X146315714Y-55753571D01*
X146458571Y-55825000D01*
X146530000Y-55967857D01*
X146530000Y-56753571D01*
X146530000Y-55967857D02*
X146601428Y-55825000D01*
X146744285Y-55753571D01*
X146958571Y-55753571D01*
X147101428Y-55825000D01*
X147172857Y-55967857D01*
X147172857Y-56753571D01*
X147887142Y-56753571D02*
X147887142Y-55253571D01*
X147887142Y-55825000D02*
X148030000Y-55753571D01*
X148315714Y-55753571D01*
X148458571Y-55825000D01*
X148530000Y-55896428D01*
X148601428Y-56039285D01*
X148601428Y-56467857D01*
X148530000Y-56610714D01*
X148458571Y-56682142D01*
X148315714Y-56753571D01*
X148030000Y-56753571D01*
X147887142Y-56682142D01*
X149815714Y-56682142D02*
X149672857Y-56753571D01*
X149387142Y-56753571D01*
X149244285Y-56682142D01*
X149172857Y-56539285D01*
X149172857Y-55967857D01*
X149244285Y-55825000D01*
X149387142Y-55753571D01*
X149672857Y-55753571D01*
X149815714Y-55825000D01*
X149887142Y-55967857D01*
X149887142Y-56110714D01*
X149172857Y-56253571D01*
X150530000Y-56753571D02*
X150530000Y-55753571D01*
X150530000Y-56039285D02*
X150601428Y-55896428D01*
X150672857Y-55825000D01*
X150815714Y-55753571D01*
X150958571Y-55753571D01*
X151387142Y-56682142D02*
X151530000Y-56753571D01*
X151815714Y-56753571D01*
X151958571Y-56682142D01*
X152030000Y-56539285D01*
X152030000Y-56467857D01*
X151958571Y-56325000D01*
X151815714Y-56253571D01*
X151601428Y-56253571D01*
X151458571Y-56182142D01*
X151387142Y-56039285D01*
X151387142Y-55967857D01*
X151458571Y-55825000D01*
X151601428Y-55753571D01*
X151815714Y-55753571D01*
X151958571Y-55825000D01*
X152672857Y-56753571D02*
X152672857Y-55253571D01*
X153315714Y-56753571D02*
X153315714Y-55967857D01*
X153244285Y-55825000D01*
X153101428Y-55753571D01*
X152887142Y-55753571D01*
X152744285Y-55825000D01*
X152672857Y-55896428D01*
X154030000Y-56753571D02*
X154030000Y-55753571D01*
X154030000Y-55253571D02*
X153958571Y-55325000D01*
X154030000Y-55396428D01*
X154101428Y-55325000D01*
X154030000Y-55253571D01*
X154030000Y-55396428D01*
X154744285Y-55753571D02*
X154744285Y-57253571D01*
X154744285Y-55825000D02*
X154887142Y-55753571D01*
X155172857Y-55753571D01*
X155315714Y-55825000D01*
X155387142Y-55896428D01*
X155458571Y-56039285D01*
X155458571Y-56467857D01*
X155387142Y-56610714D01*
X155315714Y-56682142D01*
X155172857Y-56753571D01*
X154887142Y-56753571D01*
X154744285Y-56682142D01*
X158101428Y-56610714D02*
X158030000Y-56682142D01*
X157815714Y-56753571D01*
X157672857Y-56753571D01*
X157458571Y-56682142D01*
X157315714Y-56539285D01*
X157244285Y-56396428D01*
X157172857Y-56110714D01*
X157172857Y-55896428D01*
X157244285Y-55610714D01*
X157315714Y-55467857D01*
X157458571Y-55325000D01*
X157672857Y-55253571D01*
X157815714Y-55253571D01*
X158030000Y-55325000D01*
X158101428Y-55396428D01*
X159387142Y-56753571D02*
X159387142Y-55967857D01*
X159315714Y-55825000D01*
X159172857Y-55753571D01*
X158887142Y-55753571D01*
X158744285Y-55825000D01*
X159387142Y-56682142D02*
X159244285Y-56753571D01*
X158887142Y-56753571D01*
X158744285Y-56682142D01*
X158672857Y-56539285D01*
X158672857Y-56396428D01*
X158744285Y-56253571D01*
X158887142Y-56182142D01*
X159244285Y-56182142D01*
X159387142Y-56110714D01*
X160101428Y-56753571D02*
X160101428Y-55753571D01*
X160101428Y-56039285D02*
X160172857Y-55896428D01*
X160244285Y-55825000D01*
X160387142Y-55753571D01*
X160530000Y-55753571D01*
X161672857Y-56753571D02*
X161672857Y-55253571D01*
X161672857Y-56682142D02*
X161530000Y-56753571D01*
X161244285Y-56753571D01*
X161101428Y-56682142D01*
X161030000Y-56610714D01*
X160958571Y-56467857D01*
X160958571Y-56039285D01*
X161030000Y-55896428D01*
X161101428Y-55825000D01*
X161244285Y-55753571D01*
X161530000Y-55753571D01*
X161672857Y-55825000D01*
X164030000Y-55967857D02*
X163530000Y-55967857D01*
X163530000Y-56753571D02*
X163530000Y-55253571D01*
X164244285Y-55253571D01*
X164815714Y-56753571D02*
X164815714Y-55753571D01*
X164815714Y-56039285D02*
X164887142Y-55896428D01*
X164958571Y-55825000D01*
X165101428Y-55753571D01*
X165244285Y-55753571D01*
X165958571Y-56753571D02*
X165815714Y-56682142D01*
X165744285Y-56610714D01*
X165672857Y-56467857D01*
X165672857Y-56039285D01*
X165744285Y-55896428D01*
X165815714Y-55825000D01*
X165958571Y-55753571D01*
X166172857Y-55753571D01*
X166315714Y-55825000D01*
X166387142Y-55896428D01*
X166458571Y-56039285D01*
X166458571Y-56467857D01*
X166387142Y-56610714D01*
X166315714Y-56682142D01*
X166172857Y-56753571D01*
X165958571Y-56753571D01*
X167101428Y-55753571D02*
X167101428Y-56753571D01*
X167101428Y-55896428D02*
X167172857Y-55825000D01*
X167315714Y-55753571D01*
X167530000Y-55753571D01*
X167672857Y-55825000D01*
X167744285Y-55967857D01*
X167744285Y-56753571D01*
X168244285Y-55753571D02*
X168815714Y-55753571D01*
X168458571Y-55253571D02*
X168458571Y-56539285D01*
X168530000Y-56682142D01*
X168672857Y-56753571D01*
X168815714Y-56753571D01*
X170458571Y-56753571D02*
X170458571Y-55253571D01*
X171030000Y-55253571D01*
X171172857Y-55325000D01*
X171244285Y-55396428D01*
X171315714Y-55539285D01*
X171315714Y-55753571D01*
X171244285Y-55896428D01*
X171172857Y-55967857D01*
X171030000Y-56039285D01*
X170458571Y-56039285D01*
X172601428Y-56753571D02*
X172601428Y-55967857D01*
X172530000Y-55825000D01*
X172387142Y-55753571D01*
X172101428Y-55753571D01*
X171958571Y-55825000D01*
X172601428Y-56682142D02*
X172458571Y-56753571D01*
X172101428Y-56753571D01*
X171958571Y-56682142D01*
X171887142Y-56539285D01*
X171887142Y-56396428D01*
X171958571Y-56253571D01*
X172101428Y-56182142D01*
X172458571Y-56182142D01*
X172601428Y-56110714D01*
X173315714Y-55753571D02*
X173315714Y-56753571D01*
X173315714Y-55896428D02*
X173387142Y-55825000D01*
X173530000Y-55753571D01*
X173744285Y-55753571D01*
X173887142Y-55825000D01*
X173958571Y-55967857D01*
X173958571Y-56753571D01*
X175244285Y-56682142D02*
X175101428Y-56753571D01*
X174815714Y-56753571D01*
X174672857Y-56682142D01*
X174601428Y-56539285D01*
X174601428Y-55967857D01*
X174672857Y-55825000D01*
X174815714Y-55753571D01*
X175101428Y-55753571D01*
X175244285Y-55825000D01*
X175315714Y-55967857D01*
X175315714Y-56110714D01*
X174601428Y-56253571D01*
X176172857Y-56753571D02*
X176030000Y-56682142D01*
X175958571Y-56539285D01*
X175958571Y-55253571D01*
X143744285Y-59060714D02*
X143672857Y-59132142D01*
X143458571Y-59203571D01*
X143315714Y-59203571D01*
X143101428Y-59132142D01*
X142958571Y-58989285D01*
X142887142Y-58846428D01*
X142815714Y-58560714D01*
X142815714Y-58346428D01*
X142887142Y-58060714D01*
X142958571Y-57917857D01*
X143101428Y-57775000D01*
X143315714Y-57703571D01*
X143458571Y-57703571D01*
X143672857Y-57775000D01*
X143744285Y-57846428D01*
X144601428Y-59203571D02*
X144458571Y-59132142D01*
X144387142Y-59060714D01*
X144315714Y-58917857D01*
X144315714Y-58489285D01*
X144387142Y-58346428D01*
X144458571Y-58275000D01*
X144601428Y-58203571D01*
X144815714Y-58203571D01*
X144958571Y-58275000D01*
X145030000Y-58346428D01*
X145101428Y-58489285D01*
X145101428Y-58917857D01*
X145030000Y-59060714D01*
X144958571Y-59132142D01*
X144815714Y-59203571D01*
X144601428Y-59203571D01*
X145744285Y-58203571D02*
X145744285Y-59703571D01*
X145744285Y-58275000D02*
X145887142Y-58203571D01*
X146172857Y-58203571D01*
X146315714Y-58275000D01*
X146387142Y-58346428D01*
X146458571Y-58489285D01*
X146458571Y-58917857D01*
X146387142Y-59060714D01*
X146315714Y-59132142D01*
X146172857Y-59203571D01*
X145887142Y-59203571D01*
X145744285Y-59132142D01*
X146958571Y-58203571D02*
X147315714Y-59203571D01*
X147672857Y-58203571D02*
X147315714Y-59203571D01*
X147172857Y-59560714D01*
X147101428Y-59632142D01*
X146958571Y-59703571D01*
X148244285Y-59203571D02*
X148244285Y-58203571D01*
X148244285Y-58489285D02*
X148315714Y-58346428D01*
X148387142Y-58275000D01*
X148530000Y-58203571D01*
X148672857Y-58203571D01*
X149172857Y-59203571D02*
X149172857Y-58203571D01*
X149172857Y-57703571D02*
X149101428Y-57775000D01*
X149172857Y-57846428D01*
X149244285Y-57775000D01*
X149172857Y-57703571D01*
X149172857Y-57846428D01*
X150530000Y-58203571D02*
X150530000Y-59417857D01*
X150458571Y-59560714D01*
X150387142Y-59632142D01*
X150244285Y-59703571D01*
X150030000Y-59703571D01*
X149887142Y-59632142D01*
X150530000Y-59132142D02*
X150387142Y-59203571D01*
X150101428Y-59203571D01*
X149958571Y-59132142D01*
X149887142Y-59060714D01*
X149815714Y-58917857D01*
X149815714Y-58489285D01*
X149887142Y-58346428D01*
X149958571Y-58275000D01*
X150101428Y-58203571D01*
X150387142Y-58203571D01*
X150530000Y-58275000D01*
X151244285Y-59203571D02*
X151244285Y-57703571D01*
X151887142Y-59203571D02*
X151887142Y-58417857D01*
X151815714Y-58275000D01*
X151672857Y-58203571D01*
X151458571Y-58203571D01*
X151315714Y-58275000D01*
X151244285Y-58346428D01*
X152387142Y-58203571D02*
X152958571Y-58203571D01*
X152601428Y-57703571D02*
X152601428Y-58989285D01*
X152672857Y-59132142D01*
X152815714Y-59203571D01*
X152958571Y-59203571D01*
X155815714Y-58060714D02*
X155672857Y-57989285D01*
X155387142Y-57989285D01*
X155244285Y-58060714D01*
X155101428Y-58203571D01*
X155030000Y-58346428D01*
X155030000Y-58632142D01*
X155101428Y-58775000D01*
X155244285Y-58917857D01*
X155387142Y-58989285D01*
X155672857Y-58989285D01*
X155815714Y-58917857D01*
X155530000Y-57489285D02*
X155172857Y-57560714D01*
X154815714Y-57775000D01*
X154601428Y-58132142D01*
X154530000Y-58489285D01*
X154601428Y-58846428D01*
X154815714Y-59203571D01*
X155172857Y-59417857D01*
X155530000Y-59489285D01*
X155887142Y-59417857D01*
X156244285Y-59203571D01*
X156458571Y-58846428D01*
X156530000Y-58489285D01*
X156458571Y-58132142D01*
X156244285Y-57775000D01*
X155887142Y-57560714D01*
X155530000Y-57489285D01*
X158244285Y-57846428D02*
X158315714Y-57775000D01*
X158458571Y-57703571D01*
X158815714Y-57703571D01*
X158958571Y-57775000D01*
X159030000Y-57846428D01*
X159101428Y-57989285D01*
X159101428Y-58132142D01*
X159030000Y-58346428D01*
X158172857Y-59203571D01*
X159101428Y-59203571D01*
X160030000Y-57703571D02*
X160172857Y-57703571D01*
X160315714Y-57775000D01*
X160387142Y-57846428D01*
X160458571Y-57989285D01*
X160530000Y-58275000D01*
X160530000Y-58632142D01*
X160458571Y-58917857D01*
X160387142Y-59060714D01*
X160315714Y-59132142D01*
X160172857Y-59203571D01*
X160030000Y-59203571D01*
X159887142Y-59132142D01*
X159815714Y-59060714D01*
X159744285Y-58917857D01*
X159672857Y-58632142D01*
X159672857Y-58275000D01*
X159744285Y-57989285D01*
X159815714Y-57846428D01*
X159887142Y-57775000D01*
X160030000Y-57703571D01*
X161101428Y-57846428D02*
X161172857Y-57775000D01*
X161315714Y-57703571D01*
X161672857Y-57703571D01*
X161815714Y-57775000D01*
X161887142Y-57846428D01*
X161958571Y-57989285D01*
X161958571Y-58132142D01*
X161887142Y-58346428D01*
X161030000Y-59203571D01*
X161958571Y-59203571D01*
X162887142Y-57703571D02*
X163030000Y-57703571D01*
X163172857Y-57775000D01*
X163244285Y-57846428D01*
X163315714Y-57989285D01*
X163387142Y-58275000D01*
X163387142Y-58632142D01*
X163315714Y-58917857D01*
X163244285Y-59060714D01*
X163172857Y-59132142D01*
X163030000Y-59203571D01*
X162887142Y-59203571D01*
X162744285Y-59132142D01*
X162672857Y-59060714D01*
X162601428Y-58917857D01*
X162530000Y-58632142D01*
X162530000Y-58275000D01*
X162601428Y-57989285D01*
X162672857Y-57846428D01*
X162744285Y-57775000D01*
X162887142Y-57703571D01*
X164958571Y-57703571D02*
X165815714Y-57703571D01*
X165387142Y-59203571D02*
X165387142Y-57703571D01*
X166530000Y-59203571D02*
X166387142Y-59132142D01*
X166315714Y-59060714D01*
X166244285Y-58917857D01*
X166244285Y-58489285D01*
X166315714Y-58346428D01*
X166387142Y-58275000D01*
X166530000Y-58203571D01*
X166744285Y-58203571D01*
X166887142Y-58275000D01*
X166958571Y-58346428D01*
X167030000Y-58489285D01*
X167030000Y-58917857D01*
X166958571Y-59060714D01*
X166887142Y-59132142D01*
X166744285Y-59203571D01*
X166530000Y-59203571D01*
X167672857Y-58203571D02*
X167672857Y-59203571D01*
X167672857Y-58346428D02*
X167744285Y-58275000D01*
X167887142Y-58203571D01*
X168101428Y-58203571D01*
X168244285Y-58275000D01*
X168315714Y-58417857D01*
X168315714Y-59203571D01*
X168887142Y-58203571D02*
X169244285Y-59203571D01*
X169601428Y-58203571D02*
X169244285Y-59203571D01*
X169101428Y-59560714D01*
X169030000Y-59632142D01*
X168887142Y-59703571D01*
X171315714Y-59203571D02*
X171315714Y-57703571D01*
X171315714Y-58417857D02*
X172172857Y-58417857D01*
X172172857Y-59203571D02*
X172172857Y-57703571D01*
X173458571Y-59132142D02*
X173315714Y-59203571D01*
X173030000Y-59203571D01*
X172887142Y-59132142D01*
X172815714Y-58989285D01*
X172815714Y-58417857D01*
X172887142Y-58275000D01*
X173030000Y-58203571D01*
X173315714Y-58203571D01*
X173458571Y-58275000D01*
X173530000Y-58417857D01*
X173530000Y-58560714D01*
X172815714Y-58703571D01*
X173958571Y-58203571D02*
X174530000Y-58203571D01*
X174172857Y-59203571D02*
X174172857Y-57917857D01*
X174244285Y-57775000D01*
X174387142Y-57703571D01*
X174530000Y-57703571D01*
X175030000Y-58203571D02*
X175030000Y-59203571D01*
X175030000Y-58346428D02*
X175101428Y-58275000D01*
X175244285Y-58203571D01*
X175458571Y-58203571D01*
X175601428Y-58275000D01*
X175672857Y-58417857D01*
X175672857Y-59203571D01*
X176958571Y-59132142D02*
X176815714Y-59203571D01*
X176530000Y-59203571D01*
X176387142Y-59132142D01*
X176315714Y-58989285D01*
X176315714Y-58417857D01*
X176387142Y-58275000D01*
X176530000Y-58203571D01*
X176815714Y-58203571D01*
X176958571Y-58275000D01*
X177030000Y-58417857D01*
X177030000Y-58560714D01*
X176315714Y-58703571D01*
X177672857Y-59203571D02*
X177672857Y-58203571D01*
X177672857Y-58489285D02*
X177744285Y-58346428D01*
X177815714Y-58275000D01*
X177958571Y-58203571D01*
X178101428Y-58203571D01*
X176257142Y-94238095D02*
X176257142Y-95761904D01*
X175538095Y-99942857D02*
X177061904Y-99942857D01*
X176300000Y-100704761D02*
X176300000Y-99180952D01*
X100750000Y-107866571D02*
X100750000Y-106366571D01*
X101250000Y-107438000D01*
X101750000Y-106366571D01*
X101750000Y-107866571D01*
X102464285Y-107866571D02*
X102464285Y-106366571D01*
X103035714Y-106366571D01*
X103178571Y-106438000D01*
X103250000Y-106509428D01*
X103321428Y-106652285D01*
X103321428Y-106866571D01*
X103250000Y-107009428D01*
X103178571Y-107080857D01*
X103035714Y-107152285D01*
X102464285Y-107152285D01*
X113071428Y-107921428D02*
X112928571Y-107850000D01*
X112785714Y-107707142D01*
X112571428Y-107492857D01*
X112428571Y-107421428D01*
X112285714Y-107421428D01*
X112357142Y-107778571D02*
X112214285Y-107707142D01*
X112071428Y-107564285D01*
X112000000Y-107278571D01*
X112000000Y-106778571D01*
X112071428Y-106492857D01*
X112214285Y-106350000D01*
X112357142Y-106278571D01*
X112642857Y-106278571D01*
X112785714Y-106350000D01*
X112928571Y-106492857D01*
X113000000Y-106778571D01*
X113000000Y-107278571D01*
X112928571Y-107564285D01*
X112785714Y-107707142D01*
X112642857Y-107778571D01*
X112357142Y-107778571D01*
D11*
G36*
X156168886Y-51984505D02*
G01*
X156243539Y-52021727D01*
X156309431Y-52090261D01*
X156327577Y-52115648D01*
X156347345Y-52148866D01*
X156360172Y-52184945D01*
X156367510Y-52233098D01*
X156370813Y-52302536D01*
X156371538Y-52394206D01*
X156368263Y-52519830D01*
X156356877Y-52614154D01*
X156335041Y-52684523D01*
X156300419Y-52738286D01*
X156250670Y-52782788D01*
X156247014Y-52785423D01*
X156197985Y-52812377D01*
X156138945Y-52825712D01*
X156063859Y-52829000D01*
X155941795Y-52829000D01*
X155941744Y-52947497D01*
X155940608Y-53013492D01*
X155933686Y-53052202D01*
X155915598Y-53075419D01*
X155880962Y-53094933D01*
X155872645Y-53098920D01*
X155833720Y-53117603D01*
X155803583Y-53129403D01*
X155781174Y-53130422D01*
X155765433Y-53116761D01*
X155755302Y-53084522D01*
X155749723Y-53029804D01*
X155747635Y-52948711D01*
X155747981Y-52837344D01*
X155749700Y-52691802D01*
X155750237Y-52648269D01*
X155752172Y-52498205D01*
X155753904Y-52400042D01*
X155941692Y-52400042D01*
X155942748Y-52483364D01*
X155947438Y-52537880D01*
X155958051Y-52573837D01*
X155976872Y-52601482D01*
X155989650Y-52614965D01*
X156041890Y-52654417D01*
X156088142Y-52657628D01*
X156135867Y-52625049D01*
X156137077Y-52623846D01*
X156156494Y-52598668D01*
X156168307Y-52564447D01*
X156174265Y-52511748D01*
X156176120Y-52431131D01*
X156176154Y-52413271D01*
X156171670Y-52302175D01*
X156157074Y-52225161D01*
X156130650Y-52178147D01*
X156090683Y-52157050D01*
X156067584Y-52154923D01*
X156012762Y-52164900D01*
X155975158Y-52197752D01*
X155952523Y-52257857D01*
X155942606Y-52349598D01*
X155941692Y-52400042D01*
X155753904Y-52400042D01*
X155754222Y-52382060D01*
X155756873Y-52294679D01*
X155760606Y-52230905D01*
X155765907Y-52185582D01*
X155773258Y-52153555D01*
X155783143Y-52129668D01*
X155796046Y-52108764D01*
X155801579Y-52100898D01*
X155874969Y-52026595D01*
X155967760Y-51984467D01*
X156075096Y-51972722D01*
X156168886Y-51984505D01*
G37*
X156168886Y-51984505D02*
X156243539Y-52021727D01*
X156309431Y-52090261D01*
X156327577Y-52115648D01*
X156347345Y-52148866D01*
X156360172Y-52184945D01*
X156367510Y-52233098D01*
X156370813Y-52302536D01*
X156371538Y-52394206D01*
X156368263Y-52519830D01*
X156356877Y-52614154D01*
X156335041Y-52684523D01*
X156300419Y-52738286D01*
X156250670Y-52782788D01*
X156247014Y-52785423D01*
X156197985Y-52812377D01*
X156138945Y-52825712D01*
X156063859Y-52829000D01*
X155941795Y-52829000D01*
X155941744Y-52947497D01*
X155940608Y-53013492D01*
X155933686Y-53052202D01*
X155915598Y-53075419D01*
X155880962Y-53094933D01*
X155872645Y-53098920D01*
X155833720Y-53117603D01*
X155803583Y-53129403D01*
X155781174Y-53130422D01*
X155765433Y-53116761D01*
X155755302Y-53084522D01*
X155749723Y-53029804D01*
X155747635Y-52948711D01*
X155747981Y-52837344D01*
X155749700Y-52691802D01*
X155750237Y-52648269D01*
X155752172Y-52498205D01*
X155753904Y-52400042D01*
X155941692Y-52400042D01*
X155942748Y-52483364D01*
X155947438Y-52537880D01*
X155958051Y-52573837D01*
X155976872Y-52601482D01*
X155989650Y-52614965D01*
X156041890Y-52654417D01*
X156088142Y-52657628D01*
X156135867Y-52625049D01*
X156137077Y-52623846D01*
X156156494Y-52598668D01*
X156168307Y-52564447D01*
X156174265Y-52511748D01*
X156176120Y-52431131D01*
X156176154Y-52413271D01*
X156171670Y-52302175D01*
X156157074Y-52225161D01*
X156130650Y-52178147D01*
X156090683Y-52157050D01*
X156067584Y-52154923D01*
X156012762Y-52164900D01*
X155975158Y-52197752D01*
X155952523Y-52257857D01*
X155942606Y-52349598D01*
X155941692Y-52400042D01*
X155753904Y-52400042D01*
X155754222Y-52382060D01*
X155756873Y-52294679D01*
X155760606Y-52230905D01*
X155765907Y-52185582D01*
X155773258Y-52153555D01*
X155783143Y-52129668D01*
X155796046Y-52108764D01*
X155801579Y-52100898D01*
X155874969Y-52026595D01*
X155967760Y-51984467D01*
X156075096Y-51972722D01*
X156168886Y-51984505D01*
G36*
X157671664Y-51995089D02*
G01*
X157734367Y-52031358D01*
X157777961Y-52067358D01*
X157809845Y-52105075D01*
X157831810Y-52151199D01*
X157845649Y-52212421D01*
X157853153Y-52295431D01*
X157856117Y-52406919D01*
X157856461Y-52487062D01*
X157856461Y-52782065D01*
X157690385Y-52856515D01*
X157680615Y-52533402D01*
X157676579Y-52412729D01*
X157672344Y-52325141D01*
X157667097Y-52264650D01*
X157660025Y-52225268D01*
X157650311Y-52201007D01*
X157637144Y-52185880D01*
X157632919Y-52182606D01*
X157568909Y-52157034D01*
X157504208Y-52167153D01*
X157465692Y-52194000D01*
X157450025Y-52213024D01*
X157439180Y-52237988D01*
X157432288Y-52275834D01*
X157428479Y-52333502D01*
X157426883Y-52417935D01*
X157426615Y-52505928D01*
X157426563Y-52616323D01*
X157424672Y-52694463D01*
X157418345Y-52747165D01*
X157404983Y-52781242D01*
X157381985Y-52803511D01*
X157346754Y-52820787D01*
X157299697Y-52838738D01*
X157248303Y-52858278D01*
X157254421Y-52511485D01*
X157256884Y-52386468D01*
X157259767Y-52294082D01*
X157263898Y-52227881D01*
X157270107Y-52181420D01*
X157279226Y-52148256D01*
X157292083Y-52121944D01*
X157307584Y-52098729D01*
X157382371Y-52024569D01*
X157473628Y-51981684D01*
X157572883Y-51971412D01*
X157671664Y-51995089D01*
G37*
X157671664Y-51995089D02*
X157734367Y-52031358D01*
X157777961Y-52067358D01*
X157809845Y-52105075D01*
X157831810Y-52151199D01*
X157845649Y-52212421D01*
X157853153Y-52295431D01*
X157856117Y-52406919D01*
X157856461Y-52487062D01*
X157856461Y-52782065D01*
X157690385Y-52856515D01*
X157680615Y-52533402D01*
X157676579Y-52412729D01*
X157672344Y-52325141D01*
X157667097Y-52264650D01*
X157660025Y-52225268D01*
X157650311Y-52201007D01*
X157637144Y-52185880D01*
X157632919Y-52182606D01*
X157568909Y-52157034D01*
X157504208Y-52167153D01*
X157465692Y-52194000D01*
X157450025Y-52213024D01*
X157439180Y-52237988D01*
X157432288Y-52275834D01*
X157428479Y-52333502D01*
X157426883Y-52417935D01*
X157426615Y-52505928D01*
X157426563Y-52616323D01*
X157424672Y-52694463D01*
X157418345Y-52747165D01*
X157404983Y-52781242D01*
X157381985Y-52803511D01*
X157346754Y-52820787D01*
X157299697Y-52838738D01*
X157248303Y-52858278D01*
X157254421Y-52511485D01*
X157256884Y-52386468D01*
X157259767Y-52294082D01*
X157263898Y-52227881D01*
X157270107Y-52181420D01*
X157279226Y-52148256D01*
X157292083Y-52121944D01*
X157307584Y-52098729D01*
X157382371Y-52024569D01*
X157473628Y-51981684D01*
X157572883Y-51971412D01*
X157671664Y-51995089D01*
G36*
X155416886Y-51987256D02*
G01*
X155508464Y-52035409D01*
X155576049Y-52112905D01*
X155600057Y-52162727D01*
X155618738Y-52237533D01*
X155628301Y-52332052D01*
X155629208Y-52435210D01*
X155621921Y-52535935D01*
X155606903Y-52623153D01*
X155584615Y-52685791D01*
X155577765Y-52696579D01*
X155496632Y-52777105D01*
X155400266Y-52825336D01*
X155295701Y-52839450D01*
X155189968Y-52817629D01*
X155160543Y-52804547D01*
X155103241Y-52764231D01*
X155052950Y-52710775D01*
X155048197Y-52703995D01*
X155028878Y-52671321D01*
X155016108Y-52636394D01*
X155008564Y-52590414D01*
X155004924Y-52524584D01*
X155003865Y-52430105D01*
X155003846Y-52408923D01*
X155003894Y-52402182D01*
X155199231Y-52402182D01*
X155200368Y-52491349D01*
X155204841Y-52550520D01*
X155214246Y-52588741D01*
X155230176Y-52615053D01*
X155238308Y-52623846D01*
X155285058Y-52657261D01*
X155330447Y-52655737D01*
X155376340Y-52626752D01*
X155403712Y-52595809D01*
X155419923Y-52550643D01*
X155429026Y-52479420D01*
X155429651Y-52471114D01*
X155431204Y-52342037D01*
X155414965Y-52246172D01*
X155381152Y-52184107D01*
X155329984Y-52156432D01*
X155311720Y-52154923D01*
X155263760Y-52162513D01*
X155230953Y-52188808D01*
X155210895Y-52239095D01*
X155201178Y-52318664D01*
X155199231Y-52402182D01*
X155003894Y-52402182D01*
X155004574Y-52308249D01*
X155007629Y-52237906D01*
X155014322Y-52189163D01*
X155025960Y-52153288D01*
X155043853Y-52121548D01*
X155047808Y-52115648D01*
X155114267Y-52036104D01*
X155186685Y-51989929D01*
X155274849Y-51971599D01*
X155304787Y-51970703D01*
X155416886Y-51987256D01*
G37*
X155416886Y-51987256D02*
X155508464Y-52035409D01*
X155576049Y-52112905D01*
X155600057Y-52162727D01*
X155618738Y-52237533D01*
X155628301Y-52332052D01*
X155629208Y-52435210D01*
X155621921Y-52535935D01*
X155606903Y-52623153D01*
X155584615Y-52685791D01*
X155577765Y-52696579D01*
X155496632Y-52777105D01*
X155400266Y-52825336D01*
X155295701Y-52839450D01*
X155189968Y-52817629D01*
X155160543Y-52804547D01*
X155103241Y-52764231D01*
X155052950Y-52710775D01*
X155048197Y-52703995D01*
X155028878Y-52671321D01*
X155016108Y-52636394D01*
X155008564Y-52590414D01*
X155004924Y-52524584D01*
X155003865Y-52430105D01*
X155003846Y-52408923D01*
X155003894Y-52402182D01*
X155199231Y-52402182D01*
X155200368Y-52491349D01*
X155204841Y-52550520D01*
X155214246Y-52588741D01*
X155230176Y-52615053D01*
X155238308Y-52623846D01*
X155285058Y-52657261D01*
X155330447Y-52655737D01*
X155376340Y-52626752D01*
X155403712Y-52595809D01*
X155419923Y-52550643D01*
X155429026Y-52479420D01*
X155429651Y-52471114D01*
X155431204Y-52342037D01*
X155414965Y-52246172D01*
X155381152Y-52184107D01*
X155329984Y-52156432D01*
X155311720Y-52154923D01*
X155263760Y-52162513D01*
X155230953Y-52188808D01*
X155210895Y-52239095D01*
X155201178Y-52318664D01*
X155199231Y-52402182D01*
X155003894Y-52402182D01*
X155004574Y-52308249D01*
X155007629Y-52237906D01*
X155014322Y-52189163D01*
X155025960Y-52153288D01*
X155043853Y-52121548D01*
X155047808Y-52115648D01*
X155114267Y-52036104D01*
X155186685Y-51989929D01*
X155274849Y-51971599D01*
X155304787Y-51970703D01*
X155416886Y-51987256D01*
G36*
X156934254Y-51999745D02*
G01*
X157011286Y-52051567D01*
X157070816Y-52126412D01*
X157106378Y-52221654D01*
X157113571Y-52291756D01*
X157112754Y-52321009D01*
X157105914Y-52343407D01*
X157087112Y-52363474D01*
X157050408Y-52385733D01*
X156989862Y-52414709D01*
X156899534Y-52454927D01*
X156899077Y-52455129D01*
X156815933Y-52493210D01*
X156747753Y-52527025D01*
X156701505Y-52552933D01*
X156684158Y-52567295D01*
X156684154Y-52567411D01*
X156699443Y-52598685D01*
X156735196Y-52633157D01*
X156776242Y-52657990D01*
X156797037Y-52662923D01*
X156853770Y-52645862D01*
X156902627Y-52603133D01*
X156926465Y-52556155D01*
X156949397Y-52521522D01*
X156994318Y-52482081D01*
X157047123Y-52448009D01*
X157093710Y-52429480D01*
X157103452Y-52428462D01*
X157114418Y-52445215D01*
X157115079Y-52488039D01*
X157107020Y-52545781D01*
X157091827Y-52607289D01*
X157071086Y-52661409D01*
X157070038Y-52663510D01*
X157007621Y-52750660D01*
X156926726Y-52809939D01*
X156834856Y-52839034D01*
X156739513Y-52835634D01*
X156648198Y-52797428D01*
X156644138Y-52794741D01*
X156572306Y-52729642D01*
X156525073Y-52644705D01*
X156498934Y-52533021D01*
X156495426Y-52501643D01*
X156489213Y-52353536D01*
X156496661Y-52284468D01*
X156684154Y-52284468D01*
X156686590Y-52327552D01*
X156699914Y-52340126D01*
X156733132Y-52330719D01*
X156785494Y-52308483D01*
X156844024Y-52280610D01*
X156845479Y-52279872D01*
X156895089Y-52253777D01*
X156915000Y-52236363D01*
X156910090Y-52218107D01*
X156889416Y-52194120D01*
X156836819Y-52159406D01*
X156780177Y-52156856D01*
X156729369Y-52182119D01*
X156694276Y-52230847D01*
X156684154Y-52284468D01*
X156496661Y-52284468D01*
X156501992Y-52235036D01*
X156534778Y-52141055D01*
X156580421Y-52075215D01*
X156662802Y-52008681D01*
X156753546Y-51975676D01*
X156846185Y-51973573D01*
X156934254Y-51999745D01*
G37*
X156934254Y-51999745D02*
X157011286Y-52051567D01*
X157070816Y-52126412D01*
X157106378Y-52221654D01*
X157113571Y-52291756D01*
X157112754Y-52321009D01*
X157105914Y-52343407D01*
X157087112Y-52363474D01*
X157050408Y-52385733D01*
X156989862Y-52414709D01*
X156899534Y-52454927D01*
X156899077Y-52455129D01*
X156815933Y-52493210D01*
X156747753Y-52527025D01*
X156701505Y-52552933D01*
X156684158Y-52567295D01*
X156684154Y-52567411D01*
X156699443Y-52598685D01*
X156735196Y-52633157D01*
X156776242Y-52657990D01*
X156797037Y-52662923D01*
X156853770Y-52645862D01*
X156902627Y-52603133D01*
X156926465Y-52556155D01*
X156949397Y-52521522D01*
X156994318Y-52482081D01*
X157047123Y-52448009D01*
X157093710Y-52429480D01*
X157103452Y-52428462D01*
X157114418Y-52445215D01*
X157115079Y-52488039D01*
X157107020Y-52545781D01*
X157091827Y-52607289D01*
X157071086Y-52661409D01*
X157070038Y-52663510D01*
X157007621Y-52750660D01*
X156926726Y-52809939D01*
X156834856Y-52839034D01*
X156739513Y-52835634D01*
X156648198Y-52797428D01*
X156644138Y-52794741D01*
X156572306Y-52729642D01*
X156525073Y-52644705D01*
X156498934Y-52533021D01*
X156495426Y-52501643D01*
X156489213Y-52353536D01*
X156496661Y-52284468D01*
X156684154Y-52284468D01*
X156686590Y-52327552D01*
X156699914Y-52340126D01*
X156733132Y-52330719D01*
X156785494Y-52308483D01*
X156844024Y-52280610D01*
X156845479Y-52279872D01*
X156895089Y-52253777D01*
X156915000Y-52236363D01*
X156910090Y-52218107D01*
X156889416Y-52194120D01*
X156836819Y-52159406D01*
X156780177Y-52156856D01*
X156729369Y-52182119D01*
X156694276Y-52230847D01*
X156684154Y-52284468D01*
X156496661Y-52284468D01*
X156501992Y-52235036D01*
X156534778Y-52141055D01*
X156580421Y-52075215D01*
X156662802Y-52008681D01*
X156753546Y-51975676D01*
X156846185Y-51973573D01*
X156934254Y-51999745D01*
G36*
X158559846Y-51892120D02*
G01*
X158565572Y-51971980D01*
X158572149Y-52019039D01*
X158581262Y-52039566D01*
X158594598Y-52039829D01*
X158598923Y-52037378D01*
X158656444Y-52019636D01*
X158731268Y-52020672D01*
X158807339Y-52038910D01*
X158854918Y-52062505D01*
X158903702Y-52100198D01*
X158939364Y-52142855D01*
X158963845Y-52197057D01*
X158979087Y-52269384D01*
X158987030Y-52366419D01*
X158989616Y-52494742D01*
X158989662Y-52519358D01*
X158989692Y-52795870D01*
X158928161Y-52817320D01*
X158884459Y-52831912D01*
X158860482Y-52838706D01*
X158859777Y-52838769D01*
X158857415Y-52820345D01*
X158855406Y-52769526D01*
X158853901Y-52692993D01*
X158853053Y-52597430D01*
X158852923Y-52539329D01*
X158852651Y-52424771D01*
X158851252Y-52342667D01*
X158847849Y-52286393D01*
X158841567Y-52249326D01*
X158831529Y-52224844D01*
X158816861Y-52206325D01*
X158807702Y-52197406D01*
X158744789Y-52161466D01*
X158676136Y-52158775D01*
X158613848Y-52189170D01*
X158602329Y-52200144D01*
X158585433Y-52220779D01*
X158573714Y-52245256D01*
X158566233Y-52280647D01*
X158562054Y-52334026D01*
X158560237Y-52412466D01*
X158559846Y-52520617D01*
X158559846Y-52795870D01*
X158498315Y-52817320D01*
X158454613Y-52831912D01*
X158430636Y-52838706D01*
X158429930Y-52838769D01*
X158428126Y-52820069D01*
X158426500Y-52767322D01*
X158425117Y-52685557D01*
X158424042Y-52579805D01*
X158423340Y-52455094D01*
X158423077Y-52316455D01*
X158423077Y-51781806D01*
X158550077Y-51728236D01*
X158559846Y-51892120D01*
G37*
X158559846Y-51892120D02*
X158565572Y-51971980D01*
X158572149Y-52019039D01*
X158581262Y-52039566D01*
X158594598Y-52039829D01*
X158598923Y-52037378D01*
X158656444Y-52019636D01*
X158731268Y-52020672D01*
X158807339Y-52038910D01*
X158854918Y-52062505D01*
X158903702Y-52100198D01*
X158939364Y-52142855D01*
X158963845Y-52197057D01*
X158979087Y-52269384D01*
X158987030Y-52366419D01*
X158989616Y-52494742D01*
X158989662Y-52519358D01*
X158989692Y-52795870D01*
X158928161Y-52817320D01*
X158884459Y-52831912D01*
X158860482Y-52838706D01*
X158859777Y-52838769D01*
X158857415Y-52820345D01*
X158855406Y-52769526D01*
X158853901Y-52692993D01*
X158853053Y-52597430D01*
X158852923Y-52539329D01*
X158852651Y-52424771D01*
X158851252Y-52342667D01*
X158847849Y-52286393D01*
X158841567Y-52249326D01*
X158831529Y-52224844D01*
X158816861Y-52206325D01*
X158807702Y-52197406D01*
X158744789Y-52161466D01*
X158676136Y-52158775D01*
X158613848Y-52189170D01*
X158602329Y-52200144D01*
X158585433Y-52220779D01*
X158573714Y-52245256D01*
X158566233Y-52280647D01*
X158562054Y-52334026D01*
X158560237Y-52412466D01*
X158559846Y-52520617D01*
X158559846Y-52795870D01*
X158498315Y-52817320D01*
X158454613Y-52831912D01*
X158430636Y-52838706D01*
X158429930Y-52838769D01*
X158428126Y-52820069D01*
X158426500Y-52767322D01*
X158425117Y-52685557D01*
X158424042Y-52579805D01*
X158423340Y-52455094D01*
X158423077Y-52316455D01*
X158423077Y-51781806D01*
X158550077Y-51728236D01*
X158559846Y-51892120D01*
G36*
X159453501Y-52026303D02*
G01*
X159530060Y-52054733D01*
X159530936Y-52055279D01*
X159578285Y-52090127D01*
X159613241Y-52130852D01*
X159637825Y-52183925D01*
X159654062Y-52255814D01*
X159663975Y-52352992D01*
X159669586Y-52481928D01*
X159670077Y-52500298D01*
X159677141Y-52777287D01*
X159617695Y-52808028D01*
X159574681Y-52828802D01*
X159548710Y-52838646D01*
X159547509Y-52838769D01*
X159543014Y-52820606D01*
X159539444Y-52771612D01*
X159537248Y-52700031D01*
X159536769Y-52642068D01*
X159536758Y-52548170D01*
X159532466Y-52489203D01*
X159517503Y-52461079D01*
X159485482Y-52459706D01*
X159430014Y-52480998D01*
X159346269Y-52520136D01*
X159284689Y-52552643D01*
X159253017Y-52580845D01*
X159243706Y-52611582D01*
X159243692Y-52613104D01*
X159259057Y-52666054D01*
X159304547Y-52694660D01*
X159374166Y-52698803D01*
X159424313Y-52698084D01*
X159450754Y-52712527D01*
X159467243Y-52747218D01*
X159476733Y-52791416D01*
X159463057Y-52816493D01*
X159457907Y-52820082D01*
X159409425Y-52834496D01*
X159341531Y-52836537D01*
X159271612Y-52826983D01*
X159222068Y-52809522D01*
X159153570Y-52751364D01*
X159114634Y-52670408D01*
X159106923Y-52607160D01*
X159112807Y-52550111D01*
X159134101Y-52503542D01*
X159176265Y-52462181D01*
X159244759Y-52420755D01*
X159345044Y-52373993D01*
X159351154Y-52371350D01*
X159441490Y-52329617D01*
X159497235Y-52295391D01*
X159521129Y-52264635D01*
X159515913Y-52233311D01*
X159484328Y-52197383D01*
X159474883Y-52189116D01*
X159411617Y-52157058D01*
X159346064Y-52158407D01*
X159288972Y-52189838D01*
X159251093Y-52248024D01*
X159247574Y-52259446D01*
X159213300Y-52314837D01*
X159169809Y-52341518D01*
X159106923Y-52367960D01*
X159106923Y-52299548D01*
X159126052Y-52200110D01*
X159182831Y-52108902D01*
X159212378Y-52078389D01*
X159279542Y-52039228D01*
X159364956Y-52021500D01*
X159453501Y-52026303D01*
G37*
X159453501Y-52026303D02*
X159530060Y-52054733D01*
X159530936Y-52055279D01*
X159578285Y-52090127D01*
X159613241Y-52130852D01*
X159637825Y-52183925D01*
X159654062Y-52255814D01*
X159663975Y-52352992D01*
X159669586Y-52481928D01*
X159670077Y-52500298D01*
X159677141Y-52777287D01*
X159617695Y-52808028D01*
X159574681Y-52828802D01*
X159548710Y-52838646D01*
X159547509Y-52838769D01*
X159543014Y-52820606D01*
X159539444Y-52771612D01*
X159537248Y-52700031D01*
X159536769Y-52642068D01*
X159536758Y-52548170D01*
X159532466Y-52489203D01*
X159517503Y-52461079D01*
X159485482Y-52459706D01*
X159430014Y-52480998D01*
X159346269Y-52520136D01*
X159284689Y-52552643D01*
X159253017Y-52580845D01*
X159243706Y-52611582D01*
X159243692Y-52613104D01*
X159259057Y-52666054D01*
X159304547Y-52694660D01*
X159374166Y-52698803D01*
X159424313Y-52698084D01*
X159450754Y-52712527D01*
X159467243Y-52747218D01*
X159476733Y-52791416D01*
X159463057Y-52816493D01*
X159457907Y-52820082D01*
X159409425Y-52834496D01*
X159341531Y-52836537D01*
X159271612Y-52826983D01*
X159222068Y-52809522D01*
X159153570Y-52751364D01*
X159114634Y-52670408D01*
X159106923Y-52607160D01*
X159112807Y-52550111D01*
X159134101Y-52503542D01*
X159176265Y-52462181D01*
X159244759Y-52420755D01*
X159345044Y-52373993D01*
X159351154Y-52371350D01*
X159441490Y-52329617D01*
X159497235Y-52295391D01*
X159521129Y-52264635D01*
X159515913Y-52233311D01*
X159484328Y-52197383D01*
X159474883Y-52189116D01*
X159411617Y-52157058D01*
X159346064Y-52158407D01*
X159288972Y-52189838D01*
X159251093Y-52248024D01*
X159247574Y-52259446D01*
X159213300Y-52314837D01*
X159169809Y-52341518D01*
X159106923Y-52367960D01*
X159106923Y-52299548D01*
X159126052Y-52200110D01*
X159182831Y-52108902D01*
X159212378Y-52078389D01*
X159279542Y-52039228D01*
X159364956Y-52021500D01*
X159453501Y-52026303D01*
G36*
X160113362Y-52024670D02*
G01*
X160202117Y-52057421D01*
X160274022Y-52115350D01*
X160302144Y-52156128D01*
X160332802Y-52230954D01*
X160332165Y-52285058D01*
X160299987Y-52321446D01*
X160288081Y-52327633D01*
X160236675Y-52346925D01*
X160210422Y-52341982D01*
X160201530Y-52309587D01*
X160201077Y-52291692D01*
X160184797Y-52225859D01*
X160142365Y-52179807D01*
X160083388Y-52157564D01*
X160017475Y-52163161D01*
X159963895Y-52192229D01*
X159945798Y-52208810D01*
X159932971Y-52228925D01*
X159924306Y-52259332D01*
X159918696Y-52306788D01*
X159915035Y-52378050D01*
X159912215Y-52479875D01*
X159911484Y-52512115D01*
X159908820Y-52622410D01*
X159905792Y-52700036D01*
X159901250Y-52751396D01*
X159894046Y-52782890D01*
X159883033Y-52800920D01*
X159867060Y-52811888D01*
X159856834Y-52816733D01*
X159813406Y-52833301D01*
X159787842Y-52838769D01*
X159779395Y-52820507D01*
X159774239Y-52765296D01*
X159772346Y-52672499D01*
X159773689Y-52541478D01*
X159774107Y-52521269D01*
X159777058Y-52401733D01*
X159780548Y-52314449D01*
X159785514Y-52252591D01*
X159792893Y-52209336D01*
X159803624Y-52177860D01*
X159818645Y-52151339D01*
X159826502Y-52139975D01*
X159871553Y-52089692D01*
X159921940Y-52050581D01*
X159928108Y-52047167D01*
X160018458Y-52020212D01*
X160113362Y-52024670D01*
G37*
X160113362Y-52024670D02*
X160202117Y-52057421D01*
X160274022Y-52115350D01*
X160302144Y-52156128D01*
X160332802Y-52230954D01*
X160332165Y-52285058D01*
X160299987Y-52321446D01*
X160288081Y-52327633D01*
X160236675Y-52346925D01*
X160210422Y-52341982D01*
X160201530Y-52309587D01*
X160201077Y-52291692D01*
X160184797Y-52225859D01*
X160142365Y-52179807D01*
X160083388Y-52157564D01*
X160017475Y-52163161D01*
X159963895Y-52192229D01*
X159945798Y-52208810D01*
X159932971Y-52228925D01*
X159924306Y-52259332D01*
X159918696Y-52306788D01*
X159915035Y-52378050D01*
X159912215Y-52479875D01*
X159911484Y-52512115D01*
X159908820Y-52622410D01*
X159905792Y-52700036D01*
X159901250Y-52751396D01*
X159894046Y-52782890D01*
X159883033Y-52800920D01*
X159867060Y-52811888D01*
X159856834Y-52816733D01*
X159813406Y-52833301D01*
X159787842Y-52838769D01*
X159779395Y-52820507D01*
X159774239Y-52765296D01*
X159772346Y-52672499D01*
X159773689Y-52541478D01*
X159774107Y-52521269D01*
X159777058Y-52401733D01*
X159780548Y-52314449D01*
X159785514Y-52252591D01*
X159792893Y-52209336D01*
X159803624Y-52177860D01*
X159818645Y-52151339D01*
X159826502Y-52139975D01*
X159871553Y-52089692D01*
X159921940Y-52050581D01*
X159928108Y-52047167D01*
X160018458Y-52020212D01*
X160113362Y-52024670D01*
G36*
X161002081Y-52180289D02*
G01*
X161001833Y-52326320D01*
X161000872Y-52438655D01*
X160998794Y-52522678D01*
X160995193Y-52583769D01*
X160989665Y-52627309D01*
X160981804Y-52658679D01*
X160971207Y-52683262D01*
X160963182Y-52697294D01*
X160896728Y-52773388D01*
X160812470Y-52821084D01*
X160719249Y-52838199D01*
X160625900Y-52822546D01*
X160570312Y-52794418D01*
X160511957Y-52745760D01*
X160472186Y-52686333D01*
X160448190Y-52608507D01*
X160437161Y-52504652D01*
X160435599Y-52428462D01*
X160435809Y-52422986D01*
X160572308Y-52422986D01*
X160573141Y-52510355D01*
X160576961Y-52568192D01*
X160585746Y-52606029D01*
X160601474Y-52633398D01*
X160620266Y-52654042D01*
X160683375Y-52693890D01*
X160751137Y-52697295D01*
X160815179Y-52664025D01*
X160820164Y-52659517D01*
X160841439Y-52636067D01*
X160854779Y-52608166D01*
X160862001Y-52566641D01*
X160864923Y-52502316D01*
X160865385Y-52431200D01*
X160864383Y-52341858D01*
X160860238Y-52282258D01*
X160851236Y-52243089D01*
X160835667Y-52215040D01*
X160822902Y-52200144D01*
X160763600Y-52162575D01*
X160695301Y-52158057D01*
X160630110Y-52186753D01*
X160617528Y-52197406D01*
X160596111Y-52221063D01*
X160582744Y-52249251D01*
X160575566Y-52291245D01*
X160572719Y-52356319D01*
X160572308Y-52422986D01*
X160435809Y-52422986D01*
X160440322Y-52305765D01*
X160456362Y-52213577D01*
X160486528Y-52144269D01*
X160533629Y-52090211D01*
X160570312Y-52062505D01*
X160636990Y-52032572D01*
X160714272Y-52018678D01*
X160786110Y-52022397D01*
X160826308Y-52037400D01*
X160842082Y-52041670D01*
X160852550Y-52025750D01*
X160859856Y-51983089D01*
X160865385Y-51918106D01*
X160871437Y-51845732D01*
X160879844Y-51802187D01*
X160895141Y-51777287D01*
X160921864Y-51760845D01*
X160938654Y-51753564D01*
X161002154Y-51726963D01*
X161002081Y-52180289D01*
G37*
X161002081Y-52180289D02*
X161001833Y-52326320D01*
X161000872Y-52438655D01*
X160998794Y-52522678D01*
X160995193Y-52583769D01*
X160989665Y-52627309D01*
X160981804Y-52658679D01*
X160971207Y-52683262D01*
X160963182Y-52697294D01*
X160896728Y-52773388D01*
X160812470Y-52821084D01*
X160719249Y-52838199D01*
X160625900Y-52822546D01*
X160570312Y-52794418D01*
X160511957Y-52745760D01*
X160472186Y-52686333D01*
X160448190Y-52608507D01*
X160437161Y-52504652D01*
X160435599Y-52428462D01*
X160435809Y-52422986D01*
X160572308Y-52422986D01*
X160573141Y-52510355D01*
X160576961Y-52568192D01*
X160585746Y-52606029D01*
X160601474Y-52633398D01*
X160620266Y-52654042D01*
X160683375Y-52693890D01*
X160751137Y-52697295D01*
X160815179Y-52664025D01*
X160820164Y-52659517D01*
X160841439Y-52636067D01*
X160854779Y-52608166D01*
X160862001Y-52566641D01*
X160864923Y-52502316D01*
X160865385Y-52431200D01*
X160864383Y-52341858D01*
X160860238Y-52282258D01*
X160851236Y-52243089D01*
X160835667Y-52215040D01*
X160822902Y-52200144D01*
X160763600Y-52162575D01*
X160695301Y-52158057D01*
X160630110Y-52186753D01*
X160617528Y-52197406D01*
X160596111Y-52221063D01*
X160582744Y-52249251D01*
X160575566Y-52291245D01*
X160572719Y-52356319D01*
X160572308Y-52422986D01*
X160435809Y-52422986D01*
X160440322Y-52305765D01*
X160456362Y-52213577D01*
X160486528Y-52144269D01*
X160533629Y-52090211D01*
X160570312Y-52062505D01*
X160636990Y-52032572D01*
X160714272Y-52018678D01*
X160786110Y-52022397D01*
X160826308Y-52037400D01*
X160842082Y-52041670D01*
X160852550Y-52025750D01*
X160859856Y-51983089D01*
X160865385Y-51918106D01*
X160871437Y-51845732D01*
X160879844Y-51802187D01*
X160895141Y-51777287D01*
X160921864Y-51760845D01*
X160938654Y-51753564D01*
X161002154Y-51726963D01*
X161002081Y-52180289D01*
G36*
X161795929Y-52036662D02*
G01*
X161798911Y-52088068D01*
X161801247Y-52166192D01*
X161802749Y-52264857D01*
X161803231Y-52368343D01*
X161803231Y-52718533D01*
X161741401Y-52780363D01*
X161698793Y-52818462D01*
X161661390Y-52833895D01*
X161610270Y-52832918D01*
X161589978Y-52830433D01*
X161526554Y-52823200D01*
X161474095Y-52819055D01*
X161461308Y-52818672D01*
X161418199Y-52821176D01*
X161356544Y-52827462D01*
X161332638Y-52830433D01*
X161273922Y-52835028D01*
X161234464Y-52825046D01*
X161195338Y-52794228D01*
X161181215Y-52780363D01*
X161119385Y-52718533D01*
X161119385Y-52063503D01*
X161169150Y-52040829D01*
X161212002Y-52024034D01*
X161237073Y-52018154D01*
X161243501Y-52036736D01*
X161249509Y-52088655D01*
X161254697Y-52168172D01*
X161258664Y-52269546D01*
X161260577Y-52355192D01*
X161265923Y-52692231D01*
X161312560Y-52698825D01*
X161354976Y-52694214D01*
X161375760Y-52679287D01*
X161381570Y-52651377D01*
X161386530Y-52591925D01*
X161390246Y-52508466D01*
X161392324Y-52408532D01*
X161392624Y-52357104D01*
X161392923Y-52061054D01*
X161454454Y-52039604D01*
X161498004Y-52025020D01*
X161521694Y-52018219D01*
X161522377Y-52018154D01*
X161524754Y-52036642D01*
X161527366Y-52087906D01*
X161529995Y-52165649D01*
X161532421Y-52263574D01*
X161534115Y-52355192D01*
X161539461Y-52692231D01*
X161656692Y-52692231D01*
X161662072Y-52384746D01*
X161667451Y-52077261D01*
X161724601Y-52047707D01*
X161766797Y-52027413D01*
X161791770Y-52018204D01*
X161792491Y-52018154D01*
X161795929Y-52036662D01*
G37*
X161795929Y-52036662D02*
X161798911Y-52088068D01*
X161801247Y-52166192D01*
X161802749Y-52264857D01*
X161803231Y-52368343D01*
X161803231Y-52718533D01*
X161741401Y-52780363D01*
X161698793Y-52818462D01*
X161661390Y-52833895D01*
X161610270Y-52832918D01*
X161589978Y-52830433D01*
X161526554Y-52823200D01*
X161474095Y-52819055D01*
X161461308Y-52818672D01*
X161418199Y-52821176D01*
X161356544Y-52827462D01*
X161332638Y-52830433D01*
X161273922Y-52835028D01*
X161234464Y-52825046D01*
X161195338Y-52794228D01*
X161181215Y-52780363D01*
X161119385Y-52718533D01*
X161119385Y-52063503D01*
X161169150Y-52040829D01*
X161212002Y-52024034D01*
X161237073Y-52018154D01*
X161243501Y-52036736D01*
X161249509Y-52088655D01*
X161254697Y-52168172D01*
X161258664Y-52269546D01*
X161260577Y-52355192D01*
X161265923Y-52692231D01*
X161312560Y-52698825D01*
X161354976Y-52694214D01*
X161375760Y-52679287D01*
X161381570Y-52651377D01*
X161386530Y-52591925D01*
X161390246Y-52508466D01*
X161392324Y-52408532D01*
X161392624Y-52357104D01*
X161392923Y-52061054D01*
X161454454Y-52039604D01*
X161498004Y-52025020D01*
X161521694Y-52018219D01*
X161522377Y-52018154D01*
X161524754Y-52036642D01*
X161527366Y-52087906D01*
X161529995Y-52165649D01*
X161532421Y-52263574D01*
X161534115Y-52355192D01*
X161539461Y-52692231D01*
X161656692Y-52692231D01*
X161662072Y-52384746D01*
X161667451Y-52077261D01*
X161724601Y-52047707D01*
X161766797Y-52027413D01*
X161791770Y-52018204D01*
X161792491Y-52018154D01*
X161795929Y-52036662D01*
G36*
X162287333Y-52033528D02*
G01*
X162343590Y-52059117D01*
X162387747Y-52090124D01*
X162420101Y-52124795D01*
X162442438Y-52169520D01*
X162456546Y-52230692D01*
X162464211Y-52314701D01*
X162467220Y-52427940D01*
X162467538Y-52502509D01*
X162467538Y-52793420D01*
X162417773Y-52816095D01*
X162378576Y-52832667D01*
X162359157Y-52838769D01*
X162355442Y-52820610D01*
X162352495Y-52771648D01*
X162350691Y-52700153D01*
X162350308Y-52643385D01*
X162348661Y-52561371D01*
X162344222Y-52496309D01*
X162337740Y-52456467D01*
X162332590Y-52448000D01*
X162297977Y-52456646D01*
X162243640Y-52478823D01*
X162180722Y-52508886D01*
X162120368Y-52541192D01*
X162073721Y-52570098D01*
X162051926Y-52589961D01*
X162051839Y-52590175D01*
X162053714Y-52626935D01*
X162070525Y-52662026D01*
X162100039Y-52690528D01*
X162143116Y-52700061D01*
X162179932Y-52698950D01*
X162232074Y-52698133D01*
X162259444Y-52710349D01*
X162275882Y-52742624D01*
X162277955Y-52748710D01*
X162285081Y-52794739D01*
X162266024Y-52822687D01*
X162216353Y-52836007D01*
X162162697Y-52838470D01*
X162066142Y-52820210D01*
X162016159Y-52794131D01*
X161954429Y-52732868D01*
X161921690Y-52657670D01*
X161918753Y-52578211D01*
X161946424Y-52504167D01*
X161988047Y-52457769D01*
X162029604Y-52431793D01*
X162094922Y-52398907D01*
X162171038Y-52365557D01*
X162183726Y-52360461D01*
X162267333Y-52323565D01*
X162315530Y-52291046D01*
X162331030Y-52258718D01*
X162316550Y-52222394D01*
X162291692Y-52194000D01*
X162232939Y-52159039D01*
X162168293Y-52156417D01*
X162109008Y-52183358D01*
X162066339Y-52237088D01*
X162060739Y-52250950D01*
X162028133Y-52301936D01*
X161980530Y-52339787D01*
X161920461Y-52370850D01*
X161920461Y-52282768D01*
X161923997Y-52228951D01*
X161939156Y-52186534D01*
X161972768Y-52141279D01*
X162005035Y-52106420D01*
X162055209Y-52057062D01*
X162094193Y-52030547D01*
X162136064Y-52019911D01*
X162183460Y-52018154D01*
X162287333Y-52033528D01*
G37*
X162287333Y-52033528D02*
X162343590Y-52059117D01*
X162387747Y-52090124D01*
X162420101Y-52124795D01*
X162442438Y-52169520D01*
X162456546Y-52230692D01*
X162464211Y-52314701D01*
X162467220Y-52427940D01*
X162467538Y-52502509D01*
X162467538Y-52793420D01*
X162417773Y-52816095D01*
X162378576Y-52832667D01*
X162359157Y-52838769D01*
X162355442Y-52820610D01*
X162352495Y-52771648D01*
X162350691Y-52700153D01*
X162350308Y-52643385D01*
X162348661Y-52561371D01*
X162344222Y-52496309D01*
X162337740Y-52456467D01*
X162332590Y-52448000D01*
X162297977Y-52456646D01*
X162243640Y-52478823D01*
X162180722Y-52508886D01*
X162120368Y-52541192D01*
X162073721Y-52570098D01*
X162051926Y-52589961D01*
X162051839Y-52590175D01*
X162053714Y-52626935D01*
X162070525Y-52662026D01*
X162100039Y-52690528D01*
X162143116Y-52700061D01*
X162179932Y-52698950D01*
X162232074Y-52698133D01*
X162259444Y-52710349D01*
X162275882Y-52742624D01*
X162277955Y-52748710D01*
X162285081Y-52794739D01*
X162266024Y-52822687D01*
X162216353Y-52836007D01*
X162162697Y-52838470D01*
X162066142Y-52820210D01*
X162016159Y-52794131D01*
X161954429Y-52732868D01*
X161921690Y-52657670D01*
X161918753Y-52578211D01*
X161946424Y-52504167D01*
X161988047Y-52457769D01*
X162029604Y-52431793D01*
X162094922Y-52398907D01*
X162171038Y-52365557D01*
X162183726Y-52360461D01*
X162267333Y-52323565D01*
X162315530Y-52291046D01*
X162331030Y-52258718D01*
X162316550Y-52222394D01*
X162291692Y-52194000D01*
X162232939Y-52159039D01*
X162168293Y-52156417D01*
X162109008Y-52183358D01*
X162066339Y-52237088D01*
X162060739Y-52250950D01*
X162028133Y-52301936D01*
X161980530Y-52339787D01*
X161920461Y-52370850D01*
X161920461Y-52282768D01*
X161923997Y-52228951D01*
X161939156Y-52186534D01*
X161972768Y-52141279D01*
X162005035Y-52106420D01*
X162055209Y-52057062D01*
X162094193Y-52030547D01*
X162136064Y-52019911D01*
X162183460Y-52018154D01*
X162287333Y-52033528D01*
G36*
X162970807Y-52036782D02*
G01*
X162994161Y-52046988D01*
X163049902Y-52091134D01*
X163097569Y-52154967D01*
X163127048Y-52223087D01*
X163131846Y-52256670D01*
X163115760Y-52303556D01*
X163080475Y-52328365D01*
X163042644Y-52343387D01*
X163025321Y-52346155D01*
X163016886Y-52326066D01*
X163000230Y-52282351D01*
X162992923Y-52262598D01*
X162951948Y-52194271D01*
X162892622Y-52160191D01*
X162816552Y-52161239D01*
X162810918Y-52162581D01*
X162770305Y-52181836D01*
X162740448Y-52219375D01*
X162720055Y-52279809D01*
X162707836Y-52367751D01*
X162702500Y-52487813D01*
X162702000Y-52551698D01*
X162701752Y-52652403D01*
X162700126Y-52721054D01*
X162695801Y-52764673D01*
X162687454Y-52790282D01*
X162673765Y-52804903D01*
X162653411Y-52815558D01*
X162652234Y-52816095D01*
X162613038Y-52832667D01*
X162593619Y-52838769D01*
X162590635Y-52820319D01*
X162588081Y-52769323D01*
X162586140Y-52692308D01*
X162584997Y-52595805D01*
X162584769Y-52525184D01*
X162585932Y-52388525D01*
X162590479Y-52284851D01*
X162599999Y-52208108D01*
X162616081Y-52152246D01*
X162640313Y-52111212D01*
X162674286Y-52078954D01*
X162707833Y-52056440D01*
X162788499Y-52026476D01*
X162882381Y-52019718D01*
X162970807Y-52036782D01*
G37*
X162970807Y-52036782D02*
X162994161Y-52046988D01*
X163049902Y-52091134D01*
X163097569Y-52154967D01*
X163127048Y-52223087D01*
X163131846Y-52256670D01*
X163115760Y-52303556D01*
X163080475Y-52328365D01*
X163042644Y-52343387D01*
X163025321Y-52346155D01*
X163016886Y-52326066D01*
X163000230Y-52282351D01*
X162992923Y-52262598D01*
X162951948Y-52194271D01*
X162892622Y-52160191D01*
X162816552Y-52161239D01*
X162810918Y-52162581D01*
X162770305Y-52181836D01*
X162740448Y-52219375D01*
X162720055Y-52279809D01*
X162707836Y-52367751D01*
X162702500Y-52487813D01*
X162702000Y-52551698D01*
X162701752Y-52652403D01*
X162700126Y-52721054D01*
X162695801Y-52764673D01*
X162687454Y-52790282D01*
X162673765Y-52804903D01*
X162653411Y-52815558D01*
X162652234Y-52816095D01*
X162613038Y-52832667D01*
X162593619Y-52838769D01*
X162590635Y-52820319D01*
X162588081Y-52769323D01*
X162586140Y-52692308D01*
X162584997Y-52595805D01*
X162584769Y-52525184D01*
X162585932Y-52388525D01*
X162590479Y-52284851D01*
X162599999Y-52208108D01*
X162616081Y-52152246D01*
X162640313Y-52111212D01*
X162674286Y-52078954D01*
X162707833Y-52056440D01*
X162788499Y-52026476D01*
X162882381Y-52019718D01*
X162970807Y-52036782D01*
G36*
X163645224Y-52047838D02*
G01*
X163722528Y-52098361D01*
X163759814Y-52143590D01*
X163789353Y-52225663D01*
X163791699Y-52290607D01*
X163786385Y-52377445D01*
X163586115Y-52465103D01*
X163488739Y-52509887D01*
X163425113Y-52545913D01*
X163392029Y-52577117D01*
X163386280Y-52607436D01*
X163404658Y-52640805D01*
X163424923Y-52662923D01*
X163483889Y-52698393D01*
X163548024Y-52700879D01*
X163606926Y-52673235D01*
X163650197Y-52618320D01*
X163657936Y-52598928D01*
X163695006Y-52538364D01*
X163737654Y-52512552D01*
X163796154Y-52490471D01*
X163796154Y-52574184D01*
X163790982Y-52631150D01*
X163770723Y-52679189D01*
X163728262Y-52734346D01*
X163721951Y-52741514D01*
X163674720Y-52790585D01*
X163634121Y-52816920D01*
X163583328Y-52829035D01*
X163541220Y-52833003D01*
X163465902Y-52833991D01*
X163412286Y-52821466D01*
X163378838Y-52802869D01*
X163326268Y-52761975D01*
X163289879Y-52717748D01*
X163266850Y-52662126D01*
X163254359Y-52587047D01*
X163249587Y-52484449D01*
X163249206Y-52432376D01*
X163250501Y-52369948D01*
X163368471Y-52369948D01*
X163369839Y-52403438D01*
X163373249Y-52408923D01*
X163395753Y-52401472D01*
X163444182Y-52381753D01*
X163508908Y-52353718D01*
X163522443Y-52347692D01*
X163604244Y-52306096D01*
X163649312Y-52269538D01*
X163659217Y-52235296D01*
X163635526Y-52200648D01*
X163615960Y-52185339D01*
X163545360Y-52154721D01*
X163479280Y-52159780D01*
X163423959Y-52197151D01*
X163385636Y-52263473D01*
X163373349Y-52316116D01*
X163368471Y-52369948D01*
X163250501Y-52369948D01*
X163251730Y-52310720D01*
X163261032Y-52220710D01*
X163279460Y-52155167D01*
X163309360Y-52106912D01*
X163353080Y-52068767D01*
X163372141Y-52056440D01*
X163458726Y-52024336D01*
X163553522Y-52022316D01*
X163645224Y-52047838D01*
G37*
X163645224Y-52047838D02*
X163722528Y-52098361D01*
X163759814Y-52143590D01*
X163789353Y-52225663D01*
X163791699Y-52290607D01*
X163786385Y-52377445D01*
X163586115Y-52465103D01*
X163488739Y-52509887D01*
X163425113Y-52545913D01*
X163392029Y-52577117D01*
X163386280Y-52607436D01*
X163404658Y-52640805D01*
X163424923Y-52662923D01*
X163483889Y-52698393D01*
X163548024Y-52700879D01*
X163606926Y-52673235D01*
X163650197Y-52618320D01*
X163657936Y-52598928D01*
X163695006Y-52538364D01*
X163737654Y-52512552D01*
X163796154Y-52490471D01*
X163796154Y-52574184D01*
X163790982Y-52631150D01*
X163770723Y-52679189D01*
X163728262Y-52734346D01*
X163721951Y-52741514D01*
X163674720Y-52790585D01*
X163634121Y-52816920D01*
X163583328Y-52829035D01*
X163541220Y-52833003D01*
X163465902Y-52833991D01*
X163412286Y-52821466D01*
X163378838Y-52802869D01*
X163326268Y-52761975D01*
X163289879Y-52717748D01*
X163266850Y-52662126D01*
X163254359Y-52587047D01*
X163249587Y-52484449D01*
X163249206Y-52432376D01*
X163250501Y-52369948D01*
X163368471Y-52369948D01*
X163369839Y-52403438D01*
X163373249Y-52408923D01*
X163395753Y-52401472D01*
X163444182Y-52381753D01*
X163508908Y-52353718D01*
X163522443Y-52347692D01*
X163604244Y-52306096D01*
X163649312Y-52269538D01*
X163659217Y-52235296D01*
X163635526Y-52200648D01*
X163615960Y-52185339D01*
X163545360Y-52154721D01*
X163479280Y-52159780D01*
X163423959Y-52197151D01*
X163385636Y-52263473D01*
X163373349Y-52316116D01*
X163368471Y-52369948D01*
X163250501Y-52369948D01*
X163251730Y-52310720D01*
X163261032Y-52220710D01*
X163279460Y-52155167D01*
X163309360Y-52106912D01*
X163353080Y-52068767D01*
X163372141Y-52056440D01*
X163458726Y-52024336D01*
X163553522Y-52022316D01*
X163645224Y-52047838D01*
G36*
X159539878Y-45687776D02*
G01*
X159645612Y-45688355D01*
X159722132Y-45689922D01*
X159774372Y-45692972D01*
X159807263Y-45697996D01*
X159825737Y-45705489D01*
X159834727Y-45715944D01*
X159839163Y-45729853D01*
X159839594Y-45731654D01*
X159846333Y-45764145D01*
X159858808Y-45828252D01*
X159875719Y-45917151D01*
X159895771Y-46024019D01*
X159917664Y-46142033D01*
X159918429Y-46146178D01*
X159940359Y-46261831D01*
X159960877Y-46364014D01*
X159978659Y-46446598D01*
X159992381Y-46503456D01*
X160000718Y-46528458D01*
X160001116Y-46528901D01*
X160025677Y-46541110D01*
X160076315Y-46561456D01*
X160142095Y-46585545D01*
X160142461Y-46585674D01*
X160225317Y-46616818D01*
X160323000Y-46656491D01*
X160415077Y-46696381D01*
X160419434Y-46698353D01*
X160569407Y-46766420D01*
X160901498Y-46539639D01*
X161003374Y-46470504D01*
X161095657Y-46408697D01*
X161173003Y-46357733D01*
X161230064Y-46321127D01*
X161261495Y-46302394D01*
X161264479Y-46301004D01*
X161287321Y-46307190D01*
X161329982Y-46337035D01*
X161394128Y-46391947D01*
X161481421Y-46473334D01*
X161570535Y-46559922D01*
X161656441Y-46645247D01*
X161733327Y-46723108D01*
X161796564Y-46788697D01*
X161841523Y-46837205D01*
X161863576Y-46863825D01*
X161864396Y-46865195D01*
X161866834Y-46883463D01*
X161857650Y-46913295D01*
X161834574Y-46958721D01*
X161795337Y-47023770D01*
X161737670Y-47112470D01*
X161660795Y-47226657D01*
X161592570Y-47327162D01*
X161531582Y-47417303D01*
X161481356Y-47491849D01*
X161445416Y-47545565D01*
X161427287Y-47573218D01*
X161426146Y-47575095D01*
X161428359Y-47601590D01*
X161445138Y-47653086D01*
X161473142Y-47719851D01*
X161483122Y-47741172D01*
X161526672Y-47836159D01*
X161573134Y-47943937D01*
X161610877Y-48037192D01*
X161638073Y-48106406D01*
X161659675Y-48159006D01*
X161672158Y-48186497D01*
X161673709Y-48188616D01*
X161696668Y-48192124D01*
X161750786Y-48201738D01*
X161828868Y-48216089D01*
X161923719Y-48233807D01*
X162028143Y-48253525D01*
X162134944Y-48273874D01*
X162236926Y-48293486D01*
X162326894Y-48310991D01*
X162397653Y-48325022D01*
X162442006Y-48334209D01*
X162452885Y-48336807D01*
X162464122Y-48343218D01*
X162472605Y-48357697D01*
X162478714Y-48385133D01*
X162482832Y-48430411D01*
X162485341Y-48498420D01*
X162486621Y-48594047D01*
X162487054Y-48722180D01*
X162487077Y-48774701D01*
X162487077Y-49201845D01*
X162384500Y-49222091D01*
X162327431Y-49233070D01*
X162242269Y-49249095D01*
X162139372Y-49268233D01*
X162029096Y-49288551D01*
X161998615Y-49294132D01*
X161896855Y-49313917D01*
X161808205Y-49333373D01*
X161740108Y-49350697D01*
X161700004Y-49364088D01*
X161693323Y-49368079D01*
X161676919Y-49396342D01*
X161653399Y-49451109D01*
X161627316Y-49521588D01*
X161622142Y-49536769D01*
X161587956Y-49630896D01*
X161545523Y-49737101D01*
X161503997Y-49832473D01*
X161503792Y-49832916D01*
X161434640Y-49982525D01*
X161889512Y-50651617D01*
X161597500Y-50944116D01*
X161509180Y-51031170D01*
X161428625Y-51107909D01*
X161360360Y-51170237D01*
X161308908Y-51214056D01*
X161278794Y-51235270D01*
X161274474Y-51236616D01*
X161249111Y-51226016D01*
X161197358Y-51196547D01*
X161124868Y-51151705D01*
X161037294Y-51094984D01*
X160942612Y-51031462D01*
X160846516Y-50966668D01*
X160760837Y-50910287D01*
X160691016Y-50865788D01*
X160642494Y-50836639D01*
X160620782Y-50826308D01*
X160594293Y-50835050D01*
X160544062Y-50858087D01*
X160480451Y-50890631D01*
X160473708Y-50894249D01*
X160388046Y-50937210D01*
X160329306Y-50958279D01*
X160292772Y-50958503D01*
X160273731Y-50938928D01*
X160273620Y-50938654D01*
X160264102Y-50915472D01*
X160241403Y-50860441D01*
X160207282Y-50777822D01*
X160163500Y-50671872D01*
X160111816Y-50546852D01*
X160053992Y-50407020D01*
X159997991Y-50271637D01*
X159936447Y-50122234D01*
X159879939Y-49983832D01*
X159830161Y-49860673D01*
X159788806Y-49757002D01*
X159757568Y-49677059D01*
X159738141Y-49625088D01*
X159732154Y-49605692D01*
X159747168Y-49583443D01*
X159786439Y-49547982D01*
X159838807Y-49508887D01*
X159987941Y-49385245D01*
X160104511Y-49243522D01*
X160187118Y-49086704D01*
X160234366Y-48917775D01*
X160244857Y-48739722D01*
X160237231Y-48657539D01*
X160195682Y-48487031D01*
X160124123Y-48336459D01*
X160026995Y-48207309D01*
X159908734Y-48101064D01*
X159773780Y-48019210D01*
X159626571Y-47963232D01*
X159471544Y-47934615D01*
X159313139Y-47934844D01*
X159155794Y-47965405D01*
X159003946Y-48027782D01*
X158862035Y-48123460D01*
X158802803Y-48177572D01*
X158689203Y-48316520D01*
X158610106Y-48468361D01*
X158564986Y-48628667D01*
X158553316Y-48793012D01*
X158574569Y-48956971D01*
X158628220Y-49116118D01*
X158713740Y-49266025D01*
X158830605Y-49402267D01*
X158961193Y-49508887D01*
X159015588Y-49549642D01*
X159054014Y-49584718D01*
X159067846Y-49605726D01*
X159060603Y-49628635D01*
X159040005Y-49683365D01*
X159007746Y-49765672D01*
X158965521Y-49871315D01*
X158915023Y-49996050D01*
X158857948Y-50135636D01*
X158801854Y-50271670D01*
X158739967Y-50421201D01*
X158682644Y-50559767D01*
X158631644Y-50683107D01*
X158588727Y-50786964D01*
X158555653Y-50867080D01*
X158534181Y-50919195D01*
X158526225Y-50938654D01*
X158507429Y-50958423D01*
X158471074Y-50958365D01*
X158412479Y-50937441D01*
X158326968Y-50894613D01*
X158326292Y-50894249D01*
X158261907Y-50861012D01*
X158209861Y-50836802D01*
X158180512Y-50826404D01*
X158179217Y-50826308D01*
X158157124Y-50836855D01*
X158108348Y-50866184D01*
X158038331Y-50910827D01*
X157952514Y-50967314D01*
X157857388Y-51031462D01*
X157760540Y-51096411D01*
X157673253Y-51152896D01*
X157601181Y-51197421D01*
X157549977Y-51226490D01*
X157525526Y-51236616D01*
X157503010Y-51223307D01*
X157457742Y-51186112D01*
X157394244Y-51129128D01*
X157317039Y-51056449D01*
X157230651Y-50972171D01*
X157202399Y-50944016D01*
X156910287Y-50651416D01*
X157132631Y-50325104D01*
X157200202Y-50224897D01*
X157259507Y-50134963D01*
X157307217Y-50060510D01*
X157340007Y-50006751D01*
X157354548Y-49978894D01*
X157354974Y-49976912D01*
X157347308Y-49950655D01*
X157326689Y-49897837D01*
X157296685Y-49827310D01*
X157275625Y-49780093D01*
X157236248Y-49689694D01*
X157199165Y-49598366D01*
X157170415Y-49521200D01*
X157162605Y-49497692D01*
X157140417Y-49434916D01*
X157118727Y-49386411D01*
X157106813Y-49368079D01*
X157080523Y-49356859D01*
X157023142Y-49340954D01*
X156942118Y-49322167D01*
X156844895Y-49302299D01*
X156801385Y-49294132D01*
X156690896Y-49273829D01*
X156584916Y-49254170D01*
X156493801Y-49237088D01*
X156427908Y-49224518D01*
X156415500Y-49222091D01*
X156312923Y-49201845D01*
X156312923Y-48774701D01*
X156313153Y-48634246D01*
X156314099Y-48527979D01*
X156316141Y-48451013D01*
X156319662Y-48398460D01*
X156325043Y-48365433D01*
X156332666Y-48347045D01*
X156342912Y-48338408D01*
X156347115Y-48336807D01*
X156372470Y-48331127D01*
X156428484Y-48319795D01*
X156507964Y-48304179D01*
X156603712Y-48285647D01*
X156708533Y-48265569D01*
X156815232Y-48245312D01*
X156916613Y-48226246D01*
X157005479Y-48209739D01*
X157074637Y-48197159D01*
X157116889Y-48189875D01*
X157126290Y-48188616D01*
X157134807Y-48171763D01*
X157153660Y-48126870D01*
X157179324Y-48062430D01*
X157189123Y-48037192D01*
X157228648Y-47939686D01*
X157275192Y-47831959D01*
X157316877Y-47741172D01*
X157347550Y-47671753D01*
X157367956Y-47614710D01*
X157374768Y-47579777D01*
X157373682Y-47575095D01*
X157359285Y-47552991D01*
X157326412Y-47503831D01*
X157278590Y-47432848D01*
X157219348Y-47345278D01*
X157152215Y-47246357D01*
X157138941Y-47226830D01*
X157061046Y-47111140D01*
X157003787Y-47023044D01*
X156964881Y-46958486D01*
X156942044Y-46913411D01*
X156932994Y-46883763D01*
X156935448Y-46865485D01*
X156935511Y-46865369D01*
X156954827Y-46841361D01*
X156997551Y-46794947D01*
X157059051Y-46730937D01*
X157134698Y-46654145D01*
X157219861Y-46569382D01*
X157229465Y-46559922D01*
X157336790Y-46455989D01*
X157419615Y-46379675D01*
X157479605Y-46329571D01*
X157518423Y-46304270D01*
X157535520Y-46301004D01*
X157560473Y-46315250D01*
X157612255Y-46348156D01*
X157685520Y-46396208D01*
X157774920Y-46455890D01*
X157875111Y-46523688D01*
X157898501Y-46539639D01*
X158230593Y-46766420D01*
X158380565Y-46698353D01*
X158471770Y-46658685D01*
X158569669Y-46618791D01*
X158653831Y-46586983D01*
X158657538Y-46585674D01*
X158723369Y-46561576D01*
X158774116Y-46541200D01*
X158798842Y-46528936D01*
X158798884Y-46528901D01*
X158806729Y-46506734D01*
X158820066Y-46452217D01*
X158837570Y-46371480D01*
X158857917Y-46270650D01*
X158879782Y-46155856D01*
X158881571Y-46146178D01*
X158903504Y-46027904D01*
X158923640Y-45920542D01*
X158940680Y-45830917D01*
X158953328Y-45765851D01*
X158960284Y-45732168D01*
X158960406Y-45731654D01*
X158964639Y-45717325D01*
X158972871Y-45706507D01*
X158990033Y-45698706D01*
X159021058Y-45693429D01*
X159070878Y-45690182D01*
X159144424Y-45688472D01*
X159246629Y-45687807D01*
X159382425Y-45687693D01*
X159400000Y-45687692D01*
X159539878Y-45687776D01*
G37*
X159539878Y-45687776D02*
X159645612Y-45688355D01*
X159722132Y-45689922D01*
X159774372Y-45692972D01*
X159807263Y-45697996D01*
X159825737Y-45705489D01*
X159834727Y-45715944D01*
X159839163Y-45729853D01*
X159839594Y-45731654D01*
X159846333Y-45764145D01*
X159858808Y-45828252D01*
X159875719Y-45917151D01*
X159895771Y-46024019D01*
X159917664Y-46142033D01*
X159918429Y-46146178D01*
X159940359Y-46261831D01*
X159960877Y-46364014D01*
X159978659Y-46446598D01*
X159992381Y-46503456D01*
X160000718Y-46528458D01*
X160001116Y-46528901D01*
X160025677Y-46541110D01*
X160076315Y-46561456D01*
X160142095Y-46585545D01*
X160142461Y-46585674D01*
X160225317Y-46616818D01*
X160323000Y-46656491D01*
X160415077Y-46696381D01*
X160419434Y-46698353D01*
X160569407Y-46766420D01*
X160901498Y-46539639D01*
X161003374Y-46470504D01*
X161095657Y-46408697D01*
X161173003Y-46357733D01*
X161230064Y-46321127D01*
X161261495Y-46302394D01*
X161264479Y-46301004D01*
X161287321Y-46307190D01*
X161329982Y-46337035D01*
X161394128Y-46391947D01*
X161481421Y-46473334D01*
X161570535Y-46559922D01*
X161656441Y-46645247D01*
X161733327Y-46723108D01*
X161796564Y-46788697D01*
X161841523Y-46837205D01*
X161863576Y-46863825D01*
X161864396Y-46865195D01*
X161866834Y-46883463D01*
X161857650Y-46913295D01*
X161834574Y-46958721D01*
X161795337Y-47023770D01*
X161737670Y-47112470D01*
X161660795Y-47226657D01*
X161592570Y-47327162D01*
X161531582Y-47417303D01*
X161481356Y-47491849D01*
X161445416Y-47545565D01*
X161427287Y-47573218D01*
X161426146Y-47575095D01*
X161428359Y-47601590D01*
X161445138Y-47653086D01*
X161473142Y-47719851D01*
X161483122Y-47741172D01*
X161526672Y-47836159D01*
X161573134Y-47943937D01*
X161610877Y-48037192D01*
X161638073Y-48106406D01*
X161659675Y-48159006D01*
X161672158Y-48186497D01*
X161673709Y-48188616D01*
X161696668Y-48192124D01*
X161750786Y-48201738D01*
X161828868Y-48216089D01*
X161923719Y-48233807D01*
X162028143Y-48253525D01*
X162134944Y-48273874D01*
X162236926Y-48293486D01*
X162326894Y-48310991D01*
X162397653Y-48325022D01*
X162442006Y-48334209D01*
X162452885Y-48336807D01*
X162464122Y-48343218D01*
X162472605Y-48357697D01*
X162478714Y-48385133D01*
X162482832Y-48430411D01*
X162485341Y-48498420D01*
X162486621Y-48594047D01*
X162487054Y-48722180D01*
X162487077Y-48774701D01*
X162487077Y-49201845D01*
X162384500Y-49222091D01*
X162327431Y-49233070D01*
X162242269Y-49249095D01*
X162139372Y-49268233D01*
X162029096Y-49288551D01*
X161998615Y-49294132D01*
X161896855Y-49313917D01*
X161808205Y-49333373D01*
X161740108Y-49350697D01*
X161700004Y-49364088D01*
X161693323Y-49368079D01*
X161676919Y-49396342D01*
X161653399Y-49451109D01*
X161627316Y-49521588D01*
X161622142Y-49536769D01*
X161587956Y-49630896D01*
X161545523Y-49737101D01*
X161503997Y-49832473D01*
X161503792Y-49832916D01*
X161434640Y-49982525D01*
X161889512Y-50651617D01*
X161597500Y-50944116D01*
X161509180Y-51031170D01*
X161428625Y-51107909D01*
X161360360Y-51170237D01*
X161308908Y-51214056D01*
X161278794Y-51235270D01*
X161274474Y-51236616D01*
X161249111Y-51226016D01*
X161197358Y-51196547D01*
X161124868Y-51151705D01*
X161037294Y-51094984D01*
X160942612Y-51031462D01*
X160846516Y-50966668D01*
X160760837Y-50910287D01*
X160691016Y-50865788D01*
X160642494Y-50836639D01*
X160620782Y-50826308D01*
X160594293Y-50835050D01*
X160544062Y-50858087D01*
X160480451Y-50890631D01*
X160473708Y-50894249D01*
X160388046Y-50937210D01*
X160329306Y-50958279D01*
X160292772Y-50958503D01*
X160273731Y-50938928D01*
X160273620Y-50938654D01*
X160264102Y-50915472D01*
X160241403Y-50860441D01*
X160207282Y-50777822D01*
X160163500Y-50671872D01*
X160111816Y-50546852D01*
X160053992Y-50407020D01*
X159997991Y-50271637D01*
X159936447Y-50122234D01*
X159879939Y-49983832D01*
X159830161Y-49860673D01*
X159788806Y-49757002D01*
X159757568Y-49677059D01*
X159738141Y-49625088D01*
X159732154Y-49605692D01*
X159747168Y-49583443D01*
X159786439Y-49547982D01*
X159838807Y-49508887D01*
X159987941Y-49385245D01*
X160104511Y-49243522D01*
X160187118Y-49086704D01*
X160234366Y-48917775D01*
X160244857Y-48739722D01*
X160237231Y-48657539D01*
X160195682Y-48487031D01*
X160124123Y-48336459D01*
X160026995Y-48207309D01*
X159908734Y-48101064D01*
X159773780Y-48019210D01*
X159626571Y-47963232D01*
X159471544Y-47934615D01*
X159313139Y-47934844D01*
X159155794Y-47965405D01*
X159003946Y-48027782D01*
X158862035Y-48123460D01*
X158802803Y-48177572D01*
X158689203Y-48316520D01*
X158610106Y-48468361D01*
X158564986Y-48628667D01*
X158553316Y-48793012D01*
X158574569Y-48956971D01*
X158628220Y-49116118D01*
X158713740Y-49266025D01*
X158830605Y-49402267D01*
X158961193Y-49508887D01*
X159015588Y-49549642D01*
X159054014Y-49584718D01*
X159067846Y-49605726D01*
X159060603Y-49628635D01*
X159040005Y-49683365D01*
X159007746Y-49765672D01*
X158965521Y-49871315D01*
X158915023Y-49996050D01*
X158857948Y-50135636D01*
X158801854Y-50271670D01*
X158739967Y-50421201D01*
X158682644Y-50559767D01*
X158631644Y-50683107D01*
X158588727Y-50786964D01*
X158555653Y-50867080D01*
X158534181Y-50919195D01*
X158526225Y-50938654D01*
X158507429Y-50958423D01*
X158471074Y-50958365D01*
X158412479Y-50937441D01*
X158326968Y-50894613D01*
X158326292Y-50894249D01*
X158261907Y-50861012D01*
X158209861Y-50836802D01*
X158180512Y-50826404D01*
X158179217Y-50826308D01*
X158157124Y-50836855D01*
X158108348Y-50866184D01*
X158038331Y-50910827D01*
X157952514Y-50967314D01*
X157857388Y-51031462D01*
X157760540Y-51096411D01*
X157673253Y-51152896D01*
X157601181Y-51197421D01*
X157549977Y-51226490D01*
X157525526Y-51236616D01*
X157503010Y-51223307D01*
X157457742Y-51186112D01*
X157394244Y-51129128D01*
X157317039Y-51056449D01*
X157230651Y-50972171D01*
X157202399Y-50944016D01*
X156910287Y-50651416D01*
X157132631Y-50325104D01*
X157200202Y-50224897D01*
X157259507Y-50134963D01*
X157307217Y-50060510D01*
X157340007Y-50006751D01*
X157354548Y-49978894D01*
X157354974Y-49976912D01*
X157347308Y-49950655D01*
X157326689Y-49897837D01*
X157296685Y-49827310D01*
X157275625Y-49780093D01*
X157236248Y-49689694D01*
X157199165Y-49598366D01*
X157170415Y-49521200D01*
X157162605Y-49497692D01*
X157140417Y-49434916D01*
X157118727Y-49386411D01*
X157106813Y-49368079D01*
X157080523Y-49356859D01*
X157023142Y-49340954D01*
X156942118Y-49322167D01*
X156844895Y-49302299D01*
X156801385Y-49294132D01*
X156690896Y-49273829D01*
X156584916Y-49254170D01*
X156493801Y-49237088D01*
X156427908Y-49224518D01*
X156415500Y-49222091D01*
X156312923Y-49201845D01*
X156312923Y-48774701D01*
X156313153Y-48634246D01*
X156314099Y-48527979D01*
X156316141Y-48451013D01*
X156319662Y-48398460D01*
X156325043Y-48365433D01*
X156332666Y-48347045D01*
X156342912Y-48338408D01*
X156347115Y-48336807D01*
X156372470Y-48331127D01*
X156428484Y-48319795D01*
X156507964Y-48304179D01*
X156603712Y-48285647D01*
X156708533Y-48265569D01*
X156815232Y-48245312D01*
X156916613Y-48226246D01*
X157005479Y-48209739D01*
X157074637Y-48197159D01*
X157116889Y-48189875D01*
X157126290Y-48188616D01*
X157134807Y-48171763D01*
X157153660Y-48126870D01*
X157179324Y-48062430D01*
X157189123Y-48037192D01*
X157228648Y-47939686D01*
X157275192Y-47831959D01*
X157316877Y-47741172D01*
X157347550Y-47671753D01*
X157367956Y-47614710D01*
X157374768Y-47579777D01*
X157373682Y-47575095D01*
X157359285Y-47552991D01*
X157326412Y-47503831D01*
X157278590Y-47432848D01*
X157219348Y-47345278D01*
X157152215Y-47246357D01*
X157138941Y-47226830D01*
X157061046Y-47111140D01*
X157003787Y-47023044D01*
X156964881Y-46958486D01*
X156942044Y-46913411D01*
X156932994Y-46883763D01*
X156935448Y-46865485D01*
X156935511Y-46865369D01*
X156954827Y-46841361D01*
X156997551Y-46794947D01*
X157059051Y-46730937D01*
X157134698Y-46654145D01*
X157219861Y-46569382D01*
X157229465Y-46559922D01*
X157336790Y-46455989D01*
X157419615Y-46379675D01*
X157479605Y-46329571D01*
X157518423Y-46304270D01*
X157535520Y-46301004D01*
X157560473Y-46315250D01*
X157612255Y-46348156D01*
X157685520Y-46396208D01*
X157774920Y-46455890D01*
X157875111Y-46523688D01*
X157898501Y-46539639D01*
X158230593Y-46766420D01*
X158380565Y-46698353D01*
X158471770Y-46658685D01*
X158569669Y-46618791D01*
X158653831Y-46586983D01*
X158657538Y-46585674D01*
X158723369Y-46561576D01*
X158774116Y-46541200D01*
X158798842Y-46528936D01*
X158798884Y-46528901D01*
X158806729Y-46506734D01*
X158820066Y-46452217D01*
X158837570Y-46371480D01*
X158857917Y-46270650D01*
X158879782Y-46155856D01*
X158881571Y-46146178D01*
X158903504Y-46027904D01*
X158923640Y-45920542D01*
X158940680Y-45830917D01*
X158953328Y-45765851D01*
X158960284Y-45732168D01*
X158960406Y-45731654D01*
X158964639Y-45717325D01*
X158972871Y-45706507D01*
X158990033Y-45698706D01*
X159021058Y-45693429D01*
X159070878Y-45690182D01*
X159144424Y-45688472D01*
X159246629Y-45687807D01*
X159382425Y-45687693D01*
X159400000Y-45687692D01*
X159539878Y-45687776D01*
D10*
X178200000Y-95000000D02*
X178200000Y-102500000D01*
X178200000Y-102500000D02*
X186000000Y-102500000D01*
X186000000Y-102500000D02*
X186000000Y-92500000D01*
X186000000Y-92500000D02*
X182200000Y-92500000D01*
X117633000Y-79756000D02*
G75*
G03*
X117633000Y-79756000I-100000J0D01*
G01*
D12*
X119288000Y-78851000D02*
X119288000Y-77531000D01*
X119288000Y-77531000D02*
X125888000Y-77531000D01*
X125888000Y-77531000D02*
X125888000Y-78851000D01*
X125888000Y-95901000D02*
X125888000Y-97221000D01*
X125888000Y-97221000D02*
X119288000Y-97221000D01*
X119288000Y-97221000D02*
X119288000Y-95901000D01*
D10*
X107153000Y-79756000D02*
G75*
G03*
X107153000Y-79756000I-100000J0D01*
G01*
D12*
X108808000Y-78851000D02*
X108808000Y-77531000D01*
X108808000Y-77531000D02*
X115408000Y-77531000D01*
X115408000Y-77531000D02*
X115408000Y-78851000D01*
X115408000Y-95901000D02*
X115408000Y-97221000D01*
X115408000Y-97221000D02*
X108808000Y-97221000D01*
X108808000Y-97221000D02*
X108808000Y-95901000D01*
D13*
X163907600Y-114039400D02*
X163577600Y-114039400D01*
X163577600Y-114039400D02*
X163577600Y-107499400D01*
X163577600Y-107499400D02*
X163907600Y-107499400D01*
X165987600Y-114039400D02*
X166317600Y-114039400D01*
X166317600Y-114039400D02*
X166317600Y-107499400D01*
X166317600Y-107499400D02*
X165987600Y-107499400D01*
X178106200Y-114191800D02*
X177776200Y-114191800D01*
X177776200Y-114191800D02*
X177776200Y-107651800D01*
X177776200Y-107651800D02*
X178106200Y-107651800D01*
X180186200Y-114191800D02*
X180516200Y-114191800D01*
X180516200Y-114191800D02*
X180516200Y-107651800D01*
X180516200Y-107651800D02*
X180186200Y-107651800D01*
X149560000Y-113760000D02*
X149230000Y-113760000D01*
X149230000Y-113760000D02*
X149230000Y-107220000D01*
X149230000Y-107220000D02*
X149560000Y-107220000D01*
X151640000Y-113760000D02*
X151970000Y-113760000D01*
X151970000Y-113760000D02*
X151970000Y-107220000D01*
X151970000Y-107220000D02*
X151640000Y-107220000D01*
X134926200Y-114039400D02*
X134596200Y-114039400D01*
X134596200Y-114039400D02*
X134596200Y-107499400D01*
X134596200Y-107499400D02*
X134926200Y-107499400D01*
X137006200Y-114039400D02*
X137336200Y-114039400D01*
X137336200Y-114039400D02*
X137336200Y-107499400D01*
X137336200Y-107499400D02*
X137006200Y-107499400D01*
X161014000Y-115040000D02*
X161014000Y-115370000D01*
X161014000Y-115370000D02*
X154474000Y-115370000D01*
X154474000Y-115370000D02*
X154474000Y-115040000D01*
X161014000Y-112960000D02*
X161014000Y-112630000D01*
X161014000Y-112630000D02*
X154474000Y-112630000D01*
X154474000Y-112630000D02*
X154474000Y-112960000D01*
X175314000Y-115040000D02*
X175314000Y-115370000D01*
X175314000Y-115370000D02*
X168774000Y-115370000D01*
X168774000Y-115370000D02*
X168774000Y-115040000D01*
X175314000Y-112960000D02*
X175314000Y-112630000D01*
X175314000Y-112630000D02*
X168774000Y-112630000D01*
X168774000Y-112630000D02*
X168774000Y-112960000D01*
X146660000Y-115240000D02*
X146660000Y-115570000D01*
X146660000Y-115570000D02*
X140120000Y-115570000D01*
X140120000Y-115570000D02*
X140120000Y-115240000D01*
X146660000Y-113160000D02*
X146660000Y-112830000D01*
X146660000Y-112830000D02*
X140120000Y-112830000D01*
X140120000Y-112830000D02*
X140120000Y-113160000D01*
X131760000Y-115140000D02*
X131760000Y-115470000D01*
X131760000Y-115470000D02*
X125220000Y-115470000D01*
X125220000Y-115470000D02*
X125220000Y-115140000D01*
X131760000Y-113060000D02*
X131760000Y-112730000D01*
X131760000Y-112730000D02*
X125220000Y-112730000D01*
X125220000Y-112730000D02*
X125220000Y-113060000D01*
X111474000Y-102132000D02*
X111474000Y-102462000D01*
X111474000Y-102462000D02*
X104934000Y-102462000D01*
X104934000Y-102462000D02*
X104934000Y-102132000D01*
X111474000Y-100052000D02*
X111474000Y-99722000D01*
X111474000Y-99722000D02*
X104934000Y-99722000D01*
X104934000Y-99722000D02*
X104934000Y-100052000D01*
X107974000Y-120682000D02*
X108304000Y-120682000D01*
X108304000Y-120682000D02*
X108304000Y-127222000D01*
X108304000Y-127222000D02*
X107974000Y-127222000D01*
X105894000Y-120682000D02*
X105564000Y-120682000D01*
X105564000Y-120682000D02*
X105564000Y-127222000D01*
X105564000Y-127222000D02*
X105894000Y-127222000D01*
X124148600Y-102106600D02*
X124148600Y-102436600D01*
X124148600Y-102436600D02*
X117608600Y-102436600D01*
X117608600Y-102436600D02*
X117608600Y-102106600D01*
X124148600Y-100026600D02*
X124148600Y-99696600D01*
X124148600Y-99696600D02*
X117608600Y-99696600D01*
X117608600Y-99696600D02*
X117608600Y-100026600D01*
X117356000Y-120682000D02*
X117686000Y-120682000D01*
X117686000Y-120682000D02*
X117686000Y-127222000D01*
X117686000Y-127222000D02*
X117356000Y-127222000D01*
X115276000Y-120682000D02*
X114946000Y-120682000D01*
X114946000Y-120682000D02*
X114946000Y-127222000D01*
X114946000Y-127222000D02*
X115276000Y-127222000D01*
X156378000Y-108784000D02*
X159978000Y-108784000D01*
X160016478Y-108772478D02*
G75*
G03*
X158178000Y-104334000I-1838478J1838478D01*
G01*
X156339522Y-108772478D02*
G75*
G02*
X158178000Y-104334000I1838478J1838478D01*
G01*
X170524000Y-108950000D02*
X174124000Y-108950000D01*
X174162478Y-108938478D02*
G75*
G03*
X172324000Y-104500000I-1838478J1838478D01*
G01*
X170485522Y-108938478D02*
G75*
G02*
X172324000Y-104500000I1838478J1838478D01*
G01*
X126970000Y-108750000D02*
X130570000Y-108750000D01*
X130608478Y-108738478D02*
G75*
G03*
X128770000Y-104300000I-1838478J1838478D01*
G01*
X126931522Y-108738478D02*
G75*
G02*
X128770000Y-104300000I1838478J1838478D01*
G01*
X108784000Y-116608000D02*
X108784000Y-113008000D01*
X108772478Y-112969522D02*
G75*
G03*
X104334000Y-114808000I-1838478J-1838478D01*
G01*
X108772478Y-116646478D02*
G75*
G02*
X104334000Y-114808000I-1838478J1838478D01*
G01*
D10*
X129000000Y-127175000D02*
X182340000Y-127175000D01*
X182340000Y-127175000D02*
X182340000Y-118285000D01*
X182340000Y-118285000D02*
X123920000Y-118285000D01*
X123920000Y-118285000D02*
X123920000Y-124000000D01*
X156718000Y-96570000D02*
X163258000Y-96570000D01*
X163258000Y-96570000D02*
X163258000Y-101550000D01*
X163258000Y-101550000D02*
X155258000Y-101550000D01*
X155258000Y-101550000D02*
X155258000Y-97790000D01*
D13*
X105698000Y-108748000D02*
X105854000Y-108748000D01*
X108014000Y-108748000D02*
X108170000Y-108748000D01*
X108013837Y-106146870D02*
G75*
G02*
X108014000Y-108228961I-1079837J-1041130D01*
G01*
X105854163Y-106146870D02*
G75*
G03*
X105854000Y-108228961I1079837J-1041130D01*
G01*
X108012608Y-105515665D02*
G75*
G02*
X108169516Y-108748000I-1078608J-1672335D01*
G01*
X105855392Y-105515665D02*
G75*
G03*
X105698484Y-108748000I1078608J-1672335D01*
G01*
X115096000Y-108748000D02*
X115252000Y-108748000D01*
X117412000Y-108748000D02*
X117568000Y-108748000D01*
X117411837Y-106146870D02*
G75*
G02*
X117412000Y-108228961I-1079837J-1041130D01*
G01*
X115252163Y-106146870D02*
G75*
G03*
X115252000Y-108228961I1079837J-1041130D01*
G01*
X117410608Y-105515665D02*
G75*
G02*
X117567516Y-108748000I-1078608J-1672335D01*
G01*
X115253392Y-105515665D02*
G75*
G03*
X115096484Y-108748000I1078608J-1672335D01*
G01*
X135179000Y-89320000D02*
X133921000Y-89320000D01*
X135179000Y-87480000D02*
X133921000Y-87480000D01*
X164721000Y-91580000D02*
X165979000Y-91580000D01*
X164721000Y-93420000D02*
X165979000Y-93420000D01*
X167321000Y-101487288D02*
X167321000Y-101037288D01*
X167096000Y-101262288D02*
X167546000Y-101262288D01*
X169716000Y-101069740D02*
G75*
G03*
X167596000Y-101069741I-1060000J2119740D01*
G01*
X139870000Y-80154000D02*
X139870000Y-81804000D01*
X175550000Y-80154000D02*
X139870000Y-80154000D01*
X175550000Y-85454000D02*
X175550000Y-80154000D01*
X139870000Y-85454000D02*
X175550000Y-85454000D01*
X139870000Y-83804000D02*
X139870000Y-85454000D01*
X139870000Y-81804000D02*
G75*
G02*
X139870000Y-83804000I0J-1000000D01*
G01*
X134470000Y-94040000D02*
X134470000Y-95690000D01*
X152370000Y-94040000D02*
X134470000Y-94040000D01*
X152370000Y-99340000D02*
X152370000Y-94040000D01*
X134470000Y-99340000D02*
X152370000Y-99340000D01*
X134470000Y-97690000D02*
X134470000Y-99340000D01*
X134470000Y-95690000D02*
G75*
G02*
X134470000Y-97690000I0J-1000000D01*
G01*
X141900000Y-108784000D02*
X145500000Y-108784000D01*
X145538478Y-108772478D02*
G75*
G03*
X143700000Y-104334000I-1838478J1838478D01*
G01*
X141861522Y-108772478D02*
G75*
G02*
X143700000Y-104334000I1838478J1838478D01*
G01*
X118166000Y-116608000D02*
X118166000Y-113008000D01*
X118154478Y-112969522D02*
G75*
G03*
X113716000Y-114808000I-1838478J-1838478D01*
G01*
X118154478Y-116646478D02*
G75*
G02*
X113716000Y-114808000I-1838478J1838478D01*
G01*
D10*
X104330000Y-70995000D02*
X104330000Y-72300000D01*
X180565000Y-70995000D02*
X104330000Y-70995000D01*
X180565000Y-73570000D02*
X180565000Y-70995000D01*
X105600000Y-73570000D02*
X180565000Y-73570000D01*
D14*
X178352380Y-104333333D02*
X179066666Y-104333333D01*
X179209523Y-104380952D01*
X179304761Y-104476190D01*
X179352380Y-104619047D01*
X179352380Y-104714285D01*
X179352380Y-103333333D02*
X179352380Y-103904761D01*
X179352380Y-103619047D02*
X178352380Y-103619047D01*
X178495238Y-103714285D01*
X178590476Y-103809523D01*
X178638095Y-103904761D01*
X121001095Y-75693380D02*
X121001095Y-76502904D01*
X121048714Y-76598142D01*
X121096333Y-76645761D01*
X121191571Y-76693380D01*
X121382047Y-76693380D01*
X121477285Y-76645761D01*
X121524904Y-76598142D01*
X121572523Y-76502904D01*
X121572523Y-75693380D01*
X122477285Y-76026714D02*
X122477285Y-76693380D01*
X122239190Y-75645761D02*
X122001095Y-76360047D01*
X122620142Y-76360047D01*
X110521095Y-75693380D02*
X110521095Y-76502904D01*
X110568714Y-76598142D01*
X110616333Y-76645761D01*
X110711571Y-76693380D01*
X110902047Y-76693380D01*
X110997285Y-76645761D01*
X111044904Y-76598142D01*
X111092523Y-76502904D01*
X111092523Y-75693380D01*
X111473476Y-75693380D02*
X112092523Y-75693380D01*
X111759190Y-76074333D01*
X111902047Y-76074333D01*
X111997285Y-76121952D01*
X112044904Y-76169571D01*
X112092523Y-76264809D01*
X112092523Y-76502904D01*
X112044904Y-76598142D01*
X111997285Y-76645761D01*
X111902047Y-76693380D01*
X111616333Y-76693380D01*
X111521095Y-76645761D01*
X111473476Y-76598142D01*
X163029980Y-111412257D02*
X162553790Y-111745590D01*
X163029980Y-111983685D02*
X162029980Y-111983685D01*
X162029980Y-111602733D01*
X162077600Y-111507495D01*
X162125219Y-111459876D01*
X162220457Y-111412257D01*
X162363314Y-111412257D01*
X162458552Y-111459876D01*
X162506171Y-111507495D01*
X162553790Y-111602733D01*
X162553790Y-111983685D01*
X163029980Y-110459876D02*
X163029980Y-111031304D01*
X163029980Y-110745590D02*
X162029980Y-110745590D01*
X162172838Y-110840828D01*
X162268076Y-110936066D01*
X162315695Y-111031304D01*
X162125219Y-110078923D02*
X162077600Y-110031304D01*
X162029980Y-109936066D01*
X162029980Y-109697971D01*
X162077600Y-109602733D01*
X162125219Y-109555114D01*
X162220457Y-109507495D01*
X162315695Y-109507495D01*
X162458552Y-109555114D01*
X163029980Y-110126542D01*
X163029980Y-109507495D01*
X177228580Y-111564657D02*
X176752390Y-111897990D01*
X177228580Y-112136085D02*
X176228580Y-112136085D01*
X176228580Y-111755133D01*
X176276200Y-111659895D01*
X176323819Y-111612276D01*
X176419057Y-111564657D01*
X176561914Y-111564657D01*
X176657152Y-111612276D01*
X176704771Y-111659895D01*
X176752390Y-111755133D01*
X176752390Y-112136085D01*
X177228580Y-110612276D02*
X177228580Y-111183704D01*
X177228580Y-110897990D02*
X176228580Y-110897990D01*
X176371438Y-110993228D01*
X176466676Y-111088466D01*
X176514295Y-111183704D01*
X177228580Y-109659895D02*
X177228580Y-110231323D01*
X177228580Y-109945609D02*
X176228580Y-109945609D01*
X176371438Y-110040847D01*
X176466676Y-110136085D01*
X176514295Y-110231323D01*
X148682380Y-111132857D02*
X148206190Y-111466190D01*
X148682380Y-111704285D02*
X147682380Y-111704285D01*
X147682380Y-111323333D01*
X147730000Y-111228095D01*
X147777619Y-111180476D01*
X147872857Y-111132857D01*
X148015714Y-111132857D01*
X148110952Y-111180476D01*
X148158571Y-111228095D01*
X148206190Y-111323333D01*
X148206190Y-111704285D01*
X148682380Y-110180476D02*
X148682380Y-110751904D01*
X148682380Y-110466190D02*
X147682380Y-110466190D01*
X147825238Y-110561428D01*
X147920476Y-110656666D01*
X147968095Y-110751904D01*
X147682380Y-109561428D02*
X147682380Y-109466190D01*
X147730000Y-109370952D01*
X147777619Y-109323333D01*
X147872857Y-109275714D01*
X148063333Y-109228095D01*
X148301428Y-109228095D01*
X148491904Y-109275714D01*
X148587142Y-109323333D01*
X148634761Y-109370952D01*
X148682380Y-109466190D01*
X148682380Y-109561428D01*
X148634761Y-109656666D01*
X148587142Y-109704285D01*
X148491904Y-109751904D01*
X148301428Y-109799523D01*
X148063333Y-109799523D01*
X147872857Y-109751904D01*
X147777619Y-109704285D01*
X147730000Y-109656666D01*
X147682380Y-109561428D01*
X134048580Y-110936066D02*
X133572390Y-111269400D01*
X134048580Y-111507495D02*
X133048580Y-111507495D01*
X133048580Y-111126542D01*
X133096200Y-111031304D01*
X133143819Y-110983685D01*
X133239057Y-110936066D01*
X133381914Y-110936066D01*
X133477152Y-110983685D01*
X133524771Y-111031304D01*
X133572390Y-111126542D01*
X133572390Y-111507495D01*
X134048580Y-110459876D02*
X134048580Y-110269400D01*
X134000961Y-110174161D01*
X133953342Y-110126542D01*
X133810485Y-110031304D01*
X133620009Y-109983685D01*
X133239057Y-109983685D01*
X133143819Y-110031304D01*
X133096200Y-110078923D01*
X133048580Y-110174161D01*
X133048580Y-110364638D01*
X133096200Y-110459876D01*
X133143819Y-110507495D01*
X133239057Y-110555114D01*
X133477152Y-110555114D01*
X133572390Y-110507495D01*
X133620009Y-110459876D01*
X133667628Y-110364638D01*
X133667628Y-110174161D01*
X133620009Y-110078923D01*
X133572390Y-110031304D01*
X133477152Y-109983685D01*
X157577333Y-116822380D02*
X157244000Y-116346190D01*
X157005904Y-116822380D02*
X157005904Y-115822380D01*
X157386857Y-115822380D01*
X157482095Y-115870000D01*
X157529714Y-115917619D01*
X157577333Y-116012857D01*
X157577333Y-116155714D01*
X157529714Y-116250952D01*
X157482095Y-116298571D01*
X157386857Y-116346190D01*
X157005904Y-116346190D01*
X158148761Y-116250952D02*
X158053523Y-116203333D01*
X158005904Y-116155714D01*
X157958285Y-116060476D01*
X157958285Y-116012857D01*
X158005904Y-115917619D01*
X158053523Y-115870000D01*
X158148761Y-115822380D01*
X158339238Y-115822380D01*
X158434476Y-115870000D01*
X158482095Y-115917619D01*
X158529714Y-116012857D01*
X158529714Y-116060476D01*
X158482095Y-116155714D01*
X158434476Y-116203333D01*
X158339238Y-116250952D01*
X158148761Y-116250952D01*
X158053523Y-116298571D01*
X158005904Y-116346190D01*
X157958285Y-116441428D01*
X157958285Y-116631904D01*
X158005904Y-116727142D01*
X158053523Y-116774761D01*
X158148761Y-116822380D01*
X158339238Y-116822380D01*
X158434476Y-116774761D01*
X158482095Y-116727142D01*
X158529714Y-116631904D01*
X158529714Y-116441428D01*
X158482095Y-116346190D01*
X158434476Y-116298571D01*
X158339238Y-116250952D01*
X171877333Y-116822380D02*
X171544000Y-116346190D01*
X171305904Y-116822380D02*
X171305904Y-115822380D01*
X171686857Y-115822380D01*
X171782095Y-115870000D01*
X171829714Y-115917619D01*
X171877333Y-116012857D01*
X171877333Y-116155714D01*
X171829714Y-116250952D01*
X171782095Y-116298571D01*
X171686857Y-116346190D01*
X171305904Y-116346190D01*
X172210666Y-115822380D02*
X172877333Y-115822380D01*
X172448761Y-116822380D01*
X143223333Y-117022380D02*
X142890000Y-116546190D01*
X142651904Y-117022380D02*
X142651904Y-116022380D01*
X143032857Y-116022380D01*
X143128095Y-116070000D01*
X143175714Y-116117619D01*
X143223333Y-116212857D01*
X143223333Y-116355714D01*
X143175714Y-116450952D01*
X143128095Y-116498571D01*
X143032857Y-116546190D01*
X142651904Y-116546190D01*
X144080476Y-116022380D02*
X143890000Y-116022380D01*
X143794761Y-116070000D01*
X143747142Y-116117619D01*
X143651904Y-116260476D01*
X143604285Y-116450952D01*
X143604285Y-116831904D01*
X143651904Y-116927142D01*
X143699523Y-116974761D01*
X143794761Y-117022380D01*
X143985238Y-117022380D01*
X144080476Y-116974761D01*
X144128095Y-116927142D01*
X144175714Y-116831904D01*
X144175714Y-116593809D01*
X144128095Y-116498571D01*
X144080476Y-116450952D01*
X143985238Y-116403333D01*
X143794761Y-116403333D01*
X143699523Y-116450952D01*
X143651904Y-116498571D01*
X143604285Y-116593809D01*
X128323333Y-116922380D02*
X127990000Y-116446190D01*
X127751904Y-116922380D02*
X127751904Y-115922380D01*
X128132857Y-115922380D01*
X128228095Y-115970000D01*
X128275714Y-116017619D01*
X128323333Y-116112857D01*
X128323333Y-116255714D01*
X128275714Y-116350952D01*
X128228095Y-116398571D01*
X128132857Y-116446190D01*
X127751904Y-116446190D01*
X129228095Y-115922380D02*
X128751904Y-115922380D01*
X128704285Y-116398571D01*
X128751904Y-116350952D01*
X128847142Y-116303333D01*
X129085238Y-116303333D01*
X129180476Y-116350952D01*
X129228095Y-116398571D01*
X129275714Y-116493809D01*
X129275714Y-116731904D01*
X129228095Y-116827142D01*
X129180476Y-116874761D01*
X129085238Y-116922380D01*
X128847142Y-116922380D01*
X128751904Y-116874761D01*
X128704285Y-116827142D01*
X108037333Y-103914380D02*
X107704000Y-103438190D01*
X107465904Y-103914380D02*
X107465904Y-102914380D01*
X107846857Y-102914380D01*
X107942095Y-102962000D01*
X107989714Y-103009619D01*
X108037333Y-103104857D01*
X108037333Y-103247714D01*
X107989714Y-103342952D01*
X107942095Y-103390571D01*
X107846857Y-103438190D01*
X107465904Y-103438190D01*
X108894476Y-103247714D02*
X108894476Y-103914380D01*
X108656380Y-102866761D02*
X108418285Y-103581047D01*
X109037333Y-103581047D01*
X109756380Y-124118666D02*
X109280190Y-124452000D01*
X109756380Y-124690095D02*
X108756380Y-124690095D01*
X108756380Y-124309142D01*
X108804000Y-124213904D01*
X108851619Y-124166285D01*
X108946857Y-124118666D01*
X109089714Y-124118666D01*
X109184952Y-124166285D01*
X109232571Y-124213904D01*
X109280190Y-124309142D01*
X109280190Y-124690095D01*
X108756380Y-123785333D02*
X108756380Y-123166285D01*
X109137333Y-123499619D01*
X109137333Y-123356761D01*
X109184952Y-123261523D01*
X109232571Y-123213904D01*
X109327809Y-123166285D01*
X109565904Y-123166285D01*
X109661142Y-123213904D01*
X109708761Y-123261523D01*
X109756380Y-123356761D01*
X109756380Y-123642476D01*
X109708761Y-123737714D01*
X109661142Y-123785333D01*
X120711933Y-103888980D02*
X120378600Y-103412790D01*
X120140504Y-103888980D02*
X120140504Y-102888980D01*
X120521457Y-102888980D01*
X120616695Y-102936600D01*
X120664314Y-102984219D01*
X120711933Y-103079457D01*
X120711933Y-103222314D01*
X120664314Y-103317552D01*
X120616695Y-103365171D01*
X120521457Y-103412790D01*
X120140504Y-103412790D01*
X121092885Y-102984219D02*
X121140504Y-102936600D01*
X121235742Y-102888980D01*
X121473838Y-102888980D01*
X121569076Y-102936600D01*
X121616695Y-102984219D01*
X121664314Y-103079457D01*
X121664314Y-103174695D01*
X121616695Y-103317552D01*
X121045266Y-103888980D01*
X121664314Y-103888980D01*
X119138380Y-124118666D02*
X118662190Y-124452000D01*
X119138380Y-124690095D02*
X118138380Y-124690095D01*
X118138380Y-124309142D01*
X118186000Y-124213904D01*
X118233619Y-124166285D01*
X118328857Y-124118666D01*
X118471714Y-124118666D01*
X118566952Y-124166285D01*
X118614571Y-124213904D01*
X118662190Y-124309142D01*
X118662190Y-124690095D01*
X119138380Y-123166285D02*
X119138380Y-123737714D01*
X119138380Y-123452000D02*
X118138380Y-123452000D01*
X118281238Y-123547238D01*
X118376476Y-123642476D01*
X118424095Y-123737714D01*
X158082761Y-103921619D02*
X157987523Y-103874000D01*
X157892285Y-103778761D01*
X157749428Y-103635904D01*
X157654190Y-103588285D01*
X157558952Y-103588285D01*
X157606571Y-103826380D02*
X157511333Y-103778761D01*
X157416095Y-103683523D01*
X157368476Y-103493047D01*
X157368476Y-103159714D01*
X157416095Y-102969238D01*
X157511333Y-102874000D01*
X157606571Y-102826380D01*
X157797047Y-102826380D01*
X157892285Y-102874000D01*
X157987523Y-102969238D01*
X158035142Y-103159714D01*
X158035142Y-103493047D01*
X157987523Y-103683523D01*
X157892285Y-103778761D01*
X157797047Y-103826380D01*
X157606571Y-103826380D01*
X158892285Y-102826380D02*
X158701809Y-102826380D01*
X158606571Y-102874000D01*
X158558952Y-102921619D01*
X158463714Y-103064476D01*
X158416095Y-103254952D01*
X158416095Y-103635904D01*
X158463714Y-103731142D01*
X158511333Y-103778761D01*
X158606571Y-103826380D01*
X158797047Y-103826380D01*
X158892285Y-103778761D01*
X158939904Y-103731142D01*
X158987523Y-103635904D01*
X158987523Y-103397809D01*
X158939904Y-103302571D01*
X158892285Y-103254952D01*
X158797047Y-103207333D01*
X158606571Y-103207333D01*
X158511333Y-103254952D01*
X158463714Y-103302571D01*
X158416095Y-103397809D01*
X172228761Y-104087619D02*
X172133523Y-104040000D01*
X172038285Y-103944761D01*
X171895428Y-103801904D01*
X171800190Y-103754285D01*
X171704952Y-103754285D01*
X171752571Y-103992380D02*
X171657333Y-103944761D01*
X171562095Y-103849523D01*
X171514476Y-103659047D01*
X171514476Y-103325714D01*
X171562095Y-103135238D01*
X171657333Y-103040000D01*
X171752571Y-102992380D01*
X171943047Y-102992380D01*
X172038285Y-103040000D01*
X172133523Y-103135238D01*
X172181142Y-103325714D01*
X172181142Y-103659047D01*
X172133523Y-103849523D01*
X172038285Y-103944761D01*
X171943047Y-103992380D01*
X171752571Y-103992380D01*
X173085904Y-102992380D02*
X172609714Y-102992380D01*
X172562095Y-103468571D01*
X172609714Y-103420952D01*
X172704952Y-103373333D01*
X172943047Y-103373333D01*
X173038285Y-103420952D01*
X173085904Y-103468571D01*
X173133523Y-103563809D01*
X173133523Y-103801904D01*
X173085904Y-103897142D01*
X173038285Y-103944761D01*
X172943047Y-103992380D01*
X172704952Y-103992380D01*
X172609714Y-103944761D01*
X172562095Y-103897142D01*
X128674761Y-103887619D02*
X128579523Y-103840000D01*
X128484285Y-103744761D01*
X128341428Y-103601904D01*
X128246190Y-103554285D01*
X128150952Y-103554285D01*
X128198571Y-103792380D02*
X128103333Y-103744761D01*
X128008095Y-103649523D01*
X127960476Y-103459047D01*
X127960476Y-103125714D01*
X128008095Y-102935238D01*
X128103333Y-102840000D01*
X128198571Y-102792380D01*
X128389047Y-102792380D01*
X128484285Y-102840000D01*
X128579523Y-102935238D01*
X128627142Y-103125714D01*
X128627142Y-103459047D01*
X128579523Y-103649523D01*
X128484285Y-103744761D01*
X128389047Y-103792380D01*
X128198571Y-103792380D01*
X128960476Y-102792380D02*
X129579523Y-102792380D01*
X129246190Y-103173333D01*
X129389047Y-103173333D01*
X129484285Y-103220952D01*
X129531904Y-103268571D01*
X129579523Y-103363809D01*
X129579523Y-103601904D01*
X129531904Y-103697142D01*
X129484285Y-103744761D01*
X129389047Y-103792380D01*
X129103333Y-103792380D01*
X129008095Y-103744761D01*
X128960476Y-103697142D01*
X103921619Y-114903238D02*
X103874000Y-114998476D01*
X103778761Y-115093714D01*
X103635904Y-115236571D01*
X103588285Y-115331809D01*
X103588285Y-115427047D01*
X103826380Y-115379428D02*
X103778761Y-115474666D01*
X103683523Y-115569904D01*
X103493047Y-115617523D01*
X103159714Y-115617523D01*
X102969238Y-115569904D01*
X102874000Y-115474666D01*
X102826380Y-115379428D01*
X102826380Y-115188952D01*
X102874000Y-115093714D01*
X102969238Y-114998476D01*
X103159714Y-114950857D01*
X103493047Y-114950857D01*
X103683523Y-114998476D01*
X103778761Y-115093714D01*
X103826380Y-115188952D01*
X103826380Y-115379428D01*
X102921619Y-114569904D02*
X102874000Y-114522285D01*
X102826380Y-114427047D01*
X102826380Y-114188952D01*
X102874000Y-114093714D01*
X102921619Y-114046095D01*
X103016857Y-113998476D01*
X103112095Y-113998476D01*
X103254952Y-114046095D01*
X103826380Y-114617523D01*
X103826380Y-113998476D01*
X121666666Y-118652380D02*
X121666666Y-119366666D01*
X121619047Y-119509523D01*
X121523809Y-119604761D01*
X121380952Y-119652380D01*
X121285714Y-119652380D01*
X122571428Y-118985714D02*
X122571428Y-119652380D01*
X122333333Y-118604761D02*
X122095238Y-119319047D01*
X122714285Y-119319047D01*
X155766666Y-94652380D02*
X155766666Y-95366666D01*
X155719047Y-95509523D01*
X155623809Y-95604761D01*
X155480952Y-95652380D01*
X155385714Y-95652380D01*
X156195238Y-94747619D02*
X156242857Y-94700000D01*
X156338095Y-94652380D01*
X156576190Y-94652380D01*
X156671428Y-94700000D01*
X156719047Y-94747619D01*
X156766666Y-94842857D01*
X156766666Y-94938095D01*
X156719047Y-95080952D01*
X156147619Y-95652380D01*
X156766666Y-95652380D01*
X107973904Y-111272580D02*
X107973904Y-110272580D01*
X108212000Y-110272580D01*
X108354857Y-110320200D01*
X108450095Y-110415438D01*
X108497714Y-110510676D01*
X108545333Y-110701152D01*
X108545333Y-110844009D01*
X108497714Y-111034485D01*
X108450095Y-111129723D01*
X108354857Y-111224961D01*
X108212000Y-111272580D01*
X107973904Y-111272580D01*
X108926285Y-110367819D02*
X108973904Y-110320200D01*
X109069142Y-110272580D01*
X109307238Y-110272580D01*
X109402476Y-110320200D01*
X109450095Y-110367819D01*
X109497714Y-110463057D01*
X109497714Y-110558295D01*
X109450095Y-110701152D01*
X108878666Y-111272580D01*
X109497714Y-111272580D01*
X117422704Y-111297980D02*
X117422704Y-110297980D01*
X117660800Y-110297980D01*
X117803657Y-110345600D01*
X117898895Y-110440838D01*
X117946514Y-110536076D01*
X117994133Y-110726552D01*
X117994133Y-110869409D01*
X117946514Y-111059885D01*
X117898895Y-111155123D01*
X117803657Y-111250361D01*
X117660800Y-111297980D01*
X117422704Y-111297980D01*
X118946514Y-111297980D02*
X118375085Y-111297980D01*
X118660800Y-111297980D02*
X118660800Y-110297980D01*
X118565561Y-110440838D01*
X118470323Y-110536076D01*
X118375085Y-110583695D01*
X134383333Y-90807142D02*
X134335714Y-90854761D01*
X134192857Y-90902380D01*
X134097619Y-90902380D01*
X133954761Y-90854761D01*
X133859523Y-90759523D01*
X133811904Y-90664285D01*
X133764285Y-90473809D01*
X133764285Y-90330952D01*
X133811904Y-90140476D01*
X133859523Y-90045238D01*
X133954761Y-89950000D01*
X134097619Y-89902380D01*
X134192857Y-89902380D01*
X134335714Y-89950000D01*
X134383333Y-89997619D01*
X134716666Y-89902380D02*
X135335714Y-89902380D01*
X135002380Y-90283333D01*
X135145238Y-90283333D01*
X135240476Y-90330952D01*
X135288095Y-90378571D01*
X135335714Y-90473809D01*
X135335714Y-90711904D01*
X135288095Y-90807142D01*
X135240476Y-90854761D01*
X135145238Y-90902380D01*
X134859523Y-90902380D01*
X134764285Y-90854761D01*
X134716666Y-90807142D01*
X165183333Y-90807142D02*
X165135714Y-90854761D01*
X164992857Y-90902380D01*
X164897619Y-90902380D01*
X164754761Y-90854761D01*
X164659523Y-90759523D01*
X164611904Y-90664285D01*
X164564285Y-90473809D01*
X164564285Y-90330952D01*
X164611904Y-90140476D01*
X164659523Y-90045238D01*
X164754761Y-89950000D01*
X164897619Y-89902380D01*
X164992857Y-89902380D01*
X165135714Y-89950000D01*
X165183333Y-89997619D01*
X165564285Y-89997619D02*
X165611904Y-89950000D01*
X165707142Y-89902380D01*
X165945238Y-89902380D01*
X166040476Y-89950000D01*
X166088095Y-89997619D01*
X166135714Y-90092857D01*
X166135714Y-90188095D01*
X166088095Y-90330952D01*
X165516666Y-90902380D01*
X166135714Y-90902380D01*
X165513142Y-99116666D02*
X165560761Y-99164285D01*
X165608380Y-99307142D01*
X165608380Y-99402380D01*
X165560761Y-99545238D01*
X165465523Y-99640476D01*
X165370285Y-99688095D01*
X165179809Y-99735714D01*
X165036952Y-99735714D01*
X164846476Y-99688095D01*
X164751238Y-99640476D01*
X164656000Y-99545238D01*
X164608380Y-99402380D01*
X164608380Y-99307142D01*
X164656000Y-99164285D01*
X164703619Y-99116666D01*
X165608380Y-98164285D02*
X165608380Y-98735714D01*
X165608380Y-98450000D02*
X164608380Y-98450000D01*
X164751238Y-98545238D01*
X164846476Y-98640476D01*
X164894095Y-98735714D01*
X138322380Y-83565904D02*
X139131904Y-83565904D01*
X139227142Y-83518285D01*
X139274761Y-83470666D01*
X139322380Y-83375428D01*
X139322380Y-83184952D01*
X139274761Y-83089714D01*
X139227142Y-83042095D01*
X139131904Y-82994476D01*
X138322380Y-82994476D01*
X138417619Y-82565904D02*
X138370000Y-82518285D01*
X138322380Y-82423047D01*
X138322380Y-82184952D01*
X138370000Y-82089714D01*
X138417619Y-82042095D01*
X138512857Y-81994476D01*
X138608095Y-81994476D01*
X138750952Y-82042095D01*
X139322380Y-82613523D01*
X139322380Y-81994476D01*
X132922380Y-97451904D02*
X133731904Y-97451904D01*
X133827142Y-97404285D01*
X133874761Y-97356666D01*
X133922380Y-97261428D01*
X133922380Y-97070952D01*
X133874761Y-96975714D01*
X133827142Y-96928095D01*
X133731904Y-96880476D01*
X132922380Y-96880476D01*
X133922380Y-95880476D02*
X133922380Y-96451904D01*
X133922380Y-96166190D02*
X132922380Y-96166190D01*
X133065238Y-96261428D01*
X133160476Y-96356666D01*
X133208095Y-96451904D01*
X143604761Y-103921619D02*
X143509523Y-103874000D01*
X143414285Y-103778761D01*
X143271428Y-103635904D01*
X143176190Y-103588285D01*
X143080952Y-103588285D01*
X143128571Y-103826380D02*
X143033333Y-103778761D01*
X142938095Y-103683523D01*
X142890476Y-103493047D01*
X142890476Y-103159714D01*
X142938095Y-102969238D01*
X143033333Y-102874000D01*
X143128571Y-102826380D01*
X143319047Y-102826380D01*
X143414285Y-102874000D01*
X143509523Y-102969238D01*
X143557142Y-103159714D01*
X143557142Y-103493047D01*
X143509523Y-103683523D01*
X143414285Y-103778761D01*
X143319047Y-103826380D01*
X143128571Y-103826380D01*
X144414285Y-103159714D02*
X144414285Y-103826380D01*
X144176190Y-102778761D02*
X143938095Y-103493047D01*
X144557142Y-103493047D01*
X113303619Y-114903238D02*
X113256000Y-114998476D01*
X113160761Y-115093714D01*
X113017904Y-115236571D01*
X112970285Y-115331809D01*
X112970285Y-115427047D01*
X113208380Y-115379428D02*
X113160761Y-115474666D01*
X113065523Y-115569904D01*
X112875047Y-115617523D01*
X112541714Y-115617523D01*
X112351238Y-115569904D01*
X112256000Y-115474666D01*
X112208380Y-115379428D01*
X112208380Y-115188952D01*
X112256000Y-115093714D01*
X112351238Y-114998476D01*
X112541714Y-114950857D01*
X112875047Y-114950857D01*
X113065523Y-114998476D01*
X113160761Y-115093714D01*
X113208380Y-115188952D01*
X113208380Y-115379428D01*
X113208380Y-113998476D02*
X113208380Y-114569904D01*
X113208380Y-114284190D02*
X112208380Y-114284190D01*
X112351238Y-114379428D01*
X112446476Y-114474666D01*
X112494095Y-114569904D01*
X102266666Y-71752380D02*
X102266666Y-72466666D01*
X102219047Y-72609523D01*
X102123809Y-72704761D01*
X101980952Y-72752380D01*
X101885714Y-72752380D01*
X102647619Y-71752380D02*
X103266666Y-71752380D01*
X102933333Y-72133333D01*
X103076190Y-72133333D01*
X103171428Y-72180952D01*
X103219047Y-72228571D01*
X103266666Y-72323809D01*
X103266666Y-72561904D01*
X103219047Y-72657142D01*
X103171428Y-72704761D01*
X103076190Y-72752380D01*
X102790476Y-72752380D01*
X102695238Y-72704761D01*
X102647619Y-72657142D01*
M02*
