M48
INCH,TZ
T1C0.0157
T2C0.0291
T3C0.0295
T4C0.0315
T5C0.0335
T6C0.0354
T7C0.0472
T8C0.0492
T9C0.0630
%
G90
G05
T1
X46450Y-48600
X47340Y-29940
X47920Y-29550
X48020Y-47650
X59890Y-43130
X62480Y-44200
X63590Y-32570
X64880Y-32580
X66030Y-35120
X66050Y-41330
X67350Y-36960
X67800Y-36000
T2
X42574Y-31400
X42574Y-32400
X42574Y-33400
X42574Y-34400
X42574Y-35400
X42574Y-36400
X42574Y-37400
X45700Y-31400
X45700Y-32400
X45700Y-33400
X45700Y-34400
X45700Y-35400
X45700Y-36400
X45700Y-37400
X46700Y-31400
X46700Y-32400
X46700Y-33400
X46700Y-34400
X46700Y-35400
X46700Y-36400
X46700Y-37400
X49826Y-31400
X49826Y-32400
X49826Y-33400
X49826Y-34400
X49826Y-35400
X49826Y-36400
X49826Y-37400
T3
X42100Y-44700
X42100Y-45200
X42100Y-45700
X45794Y-44700
X45794Y-45200
X45794Y-45700
X50197Y-42087
X50697Y-42087
X51197Y-42087
X56075Y-42100
X56575Y-42100
X57075Y-42100
X61775Y-42100
X62275Y-42100
X62775Y-42100
X67344Y-42165
X67844Y-42165
X68344Y-42165
T4
X41100Y-39800
X42100Y-47300
X42100Y-50300
X44100Y-39800
X45794Y-47300
X45794Y-50300
X46090Y-39790
X49087Y-44921
X49090Y-39790
X52087Y-44921
X52480Y-34803
X53465Y-34803
X53465Y-36567
X53465Y-39567
X53530Y-42110
X53530Y-45110
X54465Y-36567
X54465Y-39567
X54953Y-44961
X55465Y-36567
X55465Y-39567
X55591Y-31100
X55591Y-34100
X56465Y-36567
X56465Y-39567
X56591Y-31100
X56591Y-34100
X57465Y-36567
X57465Y-39567
X57591Y-31100
X57591Y-34100
X57953Y-44961
X58465Y-36567
X58465Y-39567
X58591Y-31100
X58591Y-34100
X59291Y-42000
X59291Y-45000
X59465Y-36567
X59465Y-39567
X59591Y-31100
X59591Y-34100
X60591Y-31100
X60591Y-34100
X60604Y-44882
X61591Y-31100
X61591Y-34100
X62591Y-31100
X62591Y-34100
X63591Y-31100
X63591Y-34100
X63604Y-44882
X64591Y-31100
X64591Y-34100
X64606Y-36417
X64940Y-42110
X64940Y-45110
X65591Y-31100
X65591Y-34100
X65591Y-36417
X66234Y-44882
X66400Y-38465
X66400Y-39449
X66591Y-31100
X66591Y-34100
X67591Y-31100
X67591Y-34100
X68591Y-31100
X68591Y-34100
X69234Y-44882
X70530Y-42170
X70530Y-45170
T5
X50787Y-47819
X50787Y-48819
X51787Y-47819
X51787Y-48819
X52787Y-47819
X52787Y-48819
X53787Y-47819
X53787Y-48819
X54787Y-47819
X54787Y-48819
X55787Y-47819
X55787Y-48819
X56787Y-47819
X56787Y-48819
X57787Y-47819
X57787Y-48819
X58787Y-47819
X58787Y-48819
X59787Y-47819
X59787Y-48819
X60787Y-47819
X60787Y-48819
X61787Y-47819
X61787Y-48819
X62787Y-47819
X62787Y-48819
X63787Y-47819
X63787Y-48819
X64787Y-47819
X64787Y-48819
X65787Y-47819
X65787Y-48819
X66787Y-47819
X66787Y-48819
X67787Y-47819
X67787Y-48819
X68787Y-47819
X68787Y-48819
X69787Y-47819
X69787Y-48819
T6
X42100Y-41700
X42100Y-42700
X45800Y-41700
X45800Y-42700
T7
X61700Y-38500
X61700Y-39500
X62700Y-38500
X62700Y-39500
X63700Y-38500
X63700Y-39500
T8
X41575Y-28465
X42575Y-28465
X43575Y-28465
X44575Y-28465
X45575Y-28465
X46575Y-28465
X47575Y-28465
X48575Y-28465
X49575Y-28465
X50575Y-28465
X51575Y-28465
X52575Y-28465
X53575Y-28465
X54575Y-28465
X55575Y-28465
X56575Y-28465
X57575Y-28465
X58575Y-28465
X59575Y-28465
X60575Y-28465
X61575Y-28465
X62575Y-28465
X63575Y-28465
X64575Y-28465
X65575Y-28465
X66575Y-28465
X67575Y-28465
X68575Y-28465
X69575Y-28465
X70575Y-28465
T9
X71732Y-37402
X71732Y-39370
T0
M30
